G04*
G04 #@! TF.GenerationSoftware,Altium Limited,Altium Designer,20.0.13 (296)*
G04*
G04 Layer_Color=16711935*
%FSLAX25Y25*%
%MOIN*%
G70*
G01*
G75*
%ADD37C,0.03000*%
%ADD52C,0.00197*%
%ADD53C,0.00472*%
D37*
X0Y0D02*
X393701D01*
X0D02*
Y216535D01*
X393701Y0D02*
Y216535D01*
X0D02*
X393701D01*
D52*
X28543Y19713D02*
G03*
X28543Y19739I10827J-28D01*
G01*
X38386Y19713D02*
G03*
X38386Y19735I984J2D01*
G01*
X343504Y19685D02*
G03*
X343504Y19711I10827J-28D01*
G01*
X353346Y19685D02*
G03*
X353347Y19707I984J2D01*
G01*
X343504Y196850D02*
G03*
X343504Y196877I10827J-28D01*
G01*
X353346Y196850D02*
G03*
X353347Y196872I984J2D01*
G01*
X28543Y196878D02*
G03*
X28543Y196905I10827J-28D01*
G01*
X38386Y196878D02*
G03*
X38386Y196900I984J2D01*
G01*
X37992Y19713D02*
X40748D01*
X39370Y18335D02*
Y21091D01*
X352953Y19685D02*
X355709D01*
X354331Y18307D02*
Y21063D01*
X352953Y196850D02*
X355709D01*
X354331Y195472D02*
Y198228D01*
X37992Y196878D02*
X40748D01*
X39370Y195500D02*
Y198256D01*
D53*
X29764Y19713D02*
G03*
X29764Y19736I9606J12D01*
G01*
X33701Y19713D02*
G03*
X33701Y19742I5669J-4D01*
G01*
X29764Y19713D02*
G03*
X29764Y19736I9606J12D01*
G01*
X33701Y19713D02*
G03*
X33701Y19742I5669J-4D01*
G01*
X344724Y19685D02*
G03*
X344724Y19708I9606J12D01*
G01*
X348661Y19685D02*
G03*
X348661Y19715I5669J-4D01*
G01*
X344724Y19685D02*
G03*
X344724Y19708I9606J12D01*
G01*
X348661Y19685D02*
G03*
X348661Y19715I5669J-4D01*
G01*
X344724Y196850D02*
G03*
X344724Y196874I9606J12D01*
G01*
X348661Y196850D02*
G03*
X348661Y196880I5669J-4D01*
G01*
X344724Y196850D02*
G03*
X344724Y196874I9606J12D01*
G01*
X348661Y196850D02*
G03*
X348661Y196880I5669J-4D01*
G01*
X29764Y196878D02*
G03*
X29764Y196902I9606J12D01*
G01*
X33701Y196878D02*
G03*
X33701Y196908I5669J-4D01*
G01*
X29764Y196878D02*
G03*
X29764Y196902I9606J12D01*
G01*
X33701Y196878D02*
G03*
X33701Y196908I5669J-4D01*
G01*
M02*
