G04*
G04 #@! TF.GenerationSoftware,Altium Limited,Altium Designer,20.0.13 (296)*
G04*
G04 Layer_Color=65535*
%FSLAX25Y25*%
%MOIN*%
G70*
G01*
G75*
%ADD10C,0.01000*%
%ADD11C,0.00800*%
%ADD12C,0.00799*%
%ADD13C,0.00984*%
G36*
X281954Y20051D02*
X284316D01*
X283135Y23201D01*
X281954Y20051D01*
D02*
G37*
G36*
X111617Y197075D02*
X109255D01*
X110436Y193925D01*
X111617Y197075D01*
D02*
G37*
D10*
X370764Y78358D02*
G03*
X370764Y78358I-5906J0D01*
G01*
X27374Y125421D02*
G03*
X29736Y127783I0J2362D01*
G01*
X9264D02*
G03*
X11626Y125421I2362J0D01*
G01*
X15169Y165579D02*
G03*
X9264Y159183I4331J-9923D01*
G01*
X29736D02*
G03*
X23831Y165579I-10236J-3527D01*
G01*
X36767Y111504D02*
X57239D01*
Y152449D01*
X36767D02*
X57239D01*
X36767Y111504D02*
Y152449D01*
X126370Y151500D02*
X151173D01*
Y181028D01*
X126370D02*
X151173D01*
X126370Y151500D02*
Y181028D01*
X127945Y123799D02*
X337394D01*
Y211201D01*
X127945D02*
X337394D01*
X127945Y123799D02*
Y211201D01*
X15000Y73445D02*
X26000D01*
X23691Y71446D02*
X26000D01*
X15000D02*
X17309D01*
X15000Y75660D02*
X26000D01*
X23022Y78017D02*
X26000D01*
X15000D02*
X17978D01*
X15000Y69000D02*
X16595D01*
X24349Y93500D02*
X26000D01*
Y69000D02*
Y93500D01*
X24405Y69000D02*
X26000D01*
X15000D02*
Y93500D01*
X16651D01*
X31524Y57181D02*
Y104819D01*
X9476Y104819D02*
X15394D01*
X25606Y104819D02*
X31524D01*
X25606Y57181D02*
X31524D01*
X9476Y57181D02*
X15394D01*
X9476D02*
Y104819D01*
X150575Y9994D02*
Y116293D01*
X249001D01*
Y9994D02*
Y116293D01*
X150575Y9994D02*
X249001D01*
X189491Y90999D02*
Y115999D01*
X199491Y90999D02*
Y116404D01*
X209491Y90999D02*
Y115999D01*
X220160Y90999D02*
Y116409D01*
X178822Y90814D02*
X211711Y90809D01*
X220160Y90814D01*
X178822Y90999D02*
Y116404D01*
X220155D01*
X73513Y212584D02*
X114682Y212668D01*
X108197Y197946D02*
X114767D01*
X102291D02*
X103621D01*
X96386D02*
X97715D01*
X90481D02*
X91810D01*
X84575D02*
X85905D01*
X78669D02*
X79999D01*
X114767D02*
Y200062D01*
Y210938D02*
Y212709D01*
X55713Y197946D02*
X62283D01*
X55713D02*
Y200062D01*
Y210938D02*
Y212709D01*
X72765Y197946D02*
X74094D01*
X66859D02*
X68189D01*
X60953D02*
X62283D01*
X55713Y212584D02*
X73513D01*
X278889Y4458D02*
X320059Y4542D01*
X278805Y19181D02*
X285374D01*
X289950D02*
X291280D01*
X295856D02*
X297185D01*
X301762D02*
X303091D01*
X307666D02*
X308996D01*
X313572D02*
X314902D01*
X278805Y17064D02*
Y19181D01*
Y4417D02*
Y6188D01*
X331288Y19181D02*
X337859D01*
Y17064D02*
Y19181D01*
Y4417D02*
Y6189D01*
X319478Y19181D02*
X320807D01*
X325382D02*
X326712D01*
X331288D02*
X332618D01*
X320059Y4542D02*
X337859D01*
X52588Y30500D02*
Y93492D01*
Y30500D02*
X137234D01*
Y93492D01*
X52588D02*
X137234D01*
X105911Y52496D02*
X114411Y60996D01*
Y61996D01*
X105411Y70996D02*
X114411Y61996D01*
X105411Y70996D02*
X114411Y61996D01*
X76911D02*
X114411D01*
X11626Y125421D02*
X27374D01*
X15169Y165579D02*
X23831D01*
X29736Y127783D02*
Y159183D01*
X9264Y127783D02*
Y159183D01*
X29736Y130146D02*
X30524Y131720D01*
X29736Y157508D02*
X30524Y155933D01*
Y131720D02*
Y155933D01*
X8476Y131720D02*
X9264Y130146D01*
X8476Y155933D02*
X9264Y157508D01*
X8476Y131720D02*
Y155933D01*
D11*
X329500Y106000D02*
X337000D01*
Y116000D01*
X257000D02*
X337000D01*
X257000Y106000D02*
Y116000D01*
X68000Y109000D02*
Y116500D01*
Y109000D02*
X78000D01*
Y169000D01*
X68000D02*
X78000D01*
X372500Y164500D02*
X382500D01*
Y124500D02*
Y164500D01*
X372500Y124500D02*
X382500D01*
X372500D02*
Y132000D01*
X345173Y98043D02*
X384543D01*
X345173Y58673D02*
X384543D01*
X345173D02*
Y98043D01*
X384543D01*
Y58673D02*
Y98043D01*
X362300Y158300D02*
Y161299D01*
X363800D01*
X364299Y160799D01*
Y159800D01*
X363800Y159300D01*
X362300D01*
X363300D02*
X364299Y158300D01*
X365299Y161299D02*
X367298Y158300D01*
Y161299D02*
X365299Y158300D01*
X362300Y151132D02*
X364299D01*
X363300D01*
Y148133D01*
X365299Y151132D02*
X367298Y148133D01*
Y151132D02*
X365299Y148133D01*
X364299Y140466D02*
X363800Y140966D01*
X362800D01*
X362300Y140466D01*
Y138467D01*
X362800Y137967D01*
X363800D01*
X364299Y138467D01*
Y139466D01*
X363300D01*
X365299Y137967D02*
Y140966D01*
X367298Y137967D01*
Y140966D01*
X368298D02*
Y137967D01*
X369798D01*
X370297Y138467D01*
Y140466D01*
X369798Y140966D01*
X368298D01*
X364299Y130799D02*
X362300D01*
Y129299D01*
X363300Y129799D01*
X363800D01*
X364299Y129299D01*
Y128300D01*
X363800Y127800D01*
X362800D01*
X362300Y128300D01*
X365299Y130799D02*
Y128800D01*
X366299Y127800D01*
X367298Y128800D01*
Y130799D01*
X299799Y103299D02*
X299300Y103799D01*
X298300D01*
X297800Y103299D01*
Y102799D01*
X298300Y102299D01*
X299300D01*
X299799Y101800D01*
Y101300D01*
X299300Y100800D01*
X298300D01*
X297800Y101300D01*
X300799Y103799D02*
Y100800D01*
X302298D01*
X302798Y101300D01*
Y103299D01*
X302298Y103799D01*
X300799D01*
X303798Y100800D02*
Y102799D01*
X304798Y103799D01*
X305797Y102799D01*
Y100800D01*
Y102299D01*
X303798D01*
X309799Y103299D02*
X309299Y103799D01*
X308300D01*
X307800Y103299D01*
Y102799D01*
X308300Y102299D01*
X309299D01*
X309799Y101800D01*
Y101300D01*
X309299Y100800D01*
X308300D01*
X307800Y101300D01*
X312798Y103299D02*
X312298Y103799D01*
X311299D01*
X310799Y103299D01*
Y101300D01*
X311299Y100800D01*
X312298D01*
X312798Y101300D01*
X313798Y103799D02*
Y100800D01*
X315797D01*
X319799Y103299D02*
X319300Y103799D01*
X318300D01*
X317800Y103299D01*
Y101300D01*
X318300Y100800D01*
X319300D01*
X319799Y101300D01*
Y102299D01*
X318800D01*
X320799Y100800D02*
Y103799D01*
X322798Y100800D01*
Y103799D01*
X323798D02*
Y100800D01*
X325298D01*
X325797Y101300D01*
Y103299D01*
X325298Y103799D01*
X323798D01*
X327800Y103299D02*
X328300Y103799D01*
X329299D01*
X329799Y103299D01*
Y102799D01*
X329299Y102299D01*
X328800D01*
X329299D01*
X329799Y101800D01*
Y101300D01*
X329299Y100800D01*
X328300D01*
X327800Y101300D01*
X330799Y103799D02*
Y101800D01*
X331799Y100800D01*
X332798Y101800D01*
Y103799D01*
X333798Y103299D02*
X334298Y103799D01*
X335298D01*
X335797Y103299D01*
Y102799D01*
X335298Y102299D01*
X334798D01*
X335298D01*
X335797Y101800D01*
Y101300D01*
X335298Y100800D01*
X334298D01*
X333798Y101300D01*
X212799Y101799D02*
X212299Y102299D01*
X211300D01*
X210800Y101799D01*
Y101299D01*
X211300Y100800D01*
X212299D01*
X212799Y100300D01*
Y99800D01*
X212299Y99300D01*
X211300D01*
X210800Y99800D01*
X213799Y102299D02*
Y99300D01*
X215299D01*
X215798Y99800D01*
Y101799D01*
X215299Y102299D01*
X213799D01*
X216798Y99300D02*
Y101299D01*
X217798Y102299D01*
X218797Y101299D01*
Y99300D01*
Y100800D01*
X216798D01*
X202633Y101799D02*
X202133Y102299D01*
X201133D01*
X200633Y101799D01*
Y101299D01*
X201133Y100800D01*
X202133D01*
X202633Y100300D01*
Y99800D01*
X202133Y99300D01*
X201133D01*
X200633Y99800D01*
X205632Y101799D02*
X205132Y102299D01*
X204132D01*
X203632Y101799D01*
Y99800D01*
X204132Y99300D01*
X205132D01*
X205632Y99800D01*
X206631Y102299D02*
Y99300D01*
X208631D01*
X182299Y101799D02*
X181799Y102299D01*
X180800D01*
X180300Y101799D01*
Y99800D01*
X180800Y99300D01*
X181799D01*
X182299Y99800D01*
Y100800D01*
X181300D01*
X183299Y99300D02*
Y102299D01*
X185298Y99300D01*
Y102299D01*
X186298D02*
Y99300D01*
X187798D01*
X188297Y99800D01*
Y101799D01*
X187798Y102299D01*
X186298D01*
X190467Y101799D02*
X190966Y102299D01*
X191966D01*
X192466Y101799D01*
Y101299D01*
X191966Y100800D01*
X191466D01*
X191966D01*
X192466Y100300D01*
Y99800D01*
X191966Y99300D01*
X190966D01*
X190467Y99800D01*
X193466Y102299D02*
Y100300D01*
X194465Y99300D01*
X195465Y100300D01*
Y102299D01*
X196465Y101799D02*
X196965Y102299D01*
X197964D01*
X198464Y101799D01*
Y101299D01*
X197964Y100800D01*
X197464D01*
X197964D01*
X198464Y100300D01*
Y99800D01*
X197964Y99300D01*
X196965D01*
X196465Y99800D01*
X51966Y108132D02*
X51299Y108799D01*
X49966D01*
X49300Y108132D01*
Y105466D01*
X49966Y104800D01*
X51299D01*
X51966Y105466D01*
Y106799D01*
X50633D01*
X53299Y104800D02*
Y108799D01*
X55964Y104800D01*
Y108799D01*
X57297D02*
Y104800D01*
X59297D01*
X59963Y105466D01*
Y108132D01*
X59297Y108799D01*
X57297D01*
X35300Y108132D02*
X35966Y108799D01*
X37299D01*
X37966Y108132D01*
Y107466D01*
X37299Y106799D01*
X36633D01*
X37299D01*
X37966Y106133D01*
Y105466D01*
X37299Y104800D01*
X35966D01*
X35300Y105466D01*
X39299Y108799D02*
Y106133D01*
X40632Y104800D01*
X41965Y106133D01*
Y108799D01*
X43297Y108132D02*
X43964Y108799D01*
X45297D01*
X45963Y108132D01*
Y107466D01*
X45297Y106799D01*
X44630D01*
X45297D01*
X45963Y106133D01*
Y105466D01*
X45297Y104800D01*
X43964D01*
X43297Y105466D01*
X80300Y115299D02*
Y111300D01*
X82299D01*
X82966Y111967D01*
Y114632D01*
X82299Y115299D01*
X80300D01*
X84299D02*
X85632D01*
X84965D01*
Y111300D01*
X84299D01*
X85632D01*
X82966Y124832D02*
X82299Y125499D01*
X80966D01*
X80300Y124832D01*
Y124166D01*
X80966Y123499D01*
X82299D01*
X82966Y122833D01*
Y122167D01*
X82299Y121500D01*
X80966D01*
X80300Y122167D01*
X84299Y125499D02*
Y121500D01*
X86964D01*
X88297Y125499D02*
Y121500D01*
Y122833D01*
X90963Y125499D01*
X88964Y123499D01*
X90963Y121500D01*
X82966Y135032D02*
X82299Y135699D01*
X80966D01*
X80300Y135032D01*
Y132367D01*
X80966Y131700D01*
X82299D01*
X82966Y132367D01*
Y133699D01*
X81633D01*
X84299Y131700D02*
Y135699D01*
X86964Y131700D01*
Y135699D01*
X88297D02*
Y131700D01*
X90297D01*
X90963Y132367D01*
Y135032D01*
X90297Y135699D01*
X88297D01*
X80300Y145899D02*
Y141900D01*
X82299D01*
X82966Y142567D01*
Y145232D01*
X82299Y145899D01*
X80300D01*
X86298D02*
X84965D01*
X84299Y145232D01*
Y142567D01*
X84965Y141900D01*
X86298D01*
X86964Y142567D01*
Y145232D01*
X86298Y145899D01*
X82966Y155432D02*
X82299Y156099D01*
X80966D01*
X80300Y155432D01*
Y152767D01*
X80966Y152100D01*
X82299D01*
X82966Y152767D01*
X86964Y155432D02*
X86298Y156099D01*
X84965D01*
X84299Y155432D01*
Y154766D01*
X84965Y154099D01*
X86298D01*
X86964Y153433D01*
Y152767D01*
X86298Y152100D01*
X84965D01*
X84299Y152767D01*
X80300Y165632D02*
X80966Y166299D01*
X82299D01*
X82966Y165632D01*
Y164966D01*
X82299Y164299D01*
X81633D01*
X82299D01*
X82966Y163633D01*
Y162967D01*
X82299Y162300D01*
X80966D01*
X80300Y162967D01*
X84299Y166299D02*
Y163633D01*
X85632Y162300D01*
X86964Y163633D01*
Y166299D01*
X88297Y165632D02*
X88964Y166299D01*
X90297D01*
X90963Y165632D01*
Y164966D01*
X90297Y164299D01*
X89630D01*
X90297D01*
X90963Y163633D01*
Y162967D01*
X90297Y162300D01*
X88964D01*
X88297Y162967D01*
X17300Y118299D02*
X21299D01*
X19299Y120299D02*
Y116300D01*
X36299Y73798D02*
X34300D01*
X33300Y72798D01*
Y68800D01*
X34300Y67800D01*
X36299D01*
X37299Y68800D01*
Y72798D01*
X36299Y73798D01*
X43297D02*
X39298D01*
Y70799D01*
X41297D01*
X39298D01*
Y67800D01*
X49295Y73798D02*
X45296D01*
Y70799D01*
X47295D01*
X45296D01*
Y67800D01*
X36299Y95798D02*
X34300D01*
X33300Y94798D01*
Y90800D01*
X34300Y89800D01*
X36299D01*
X37299Y90800D01*
Y94798D01*
X36299Y95798D01*
X39298Y89800D02*
Y95798D01*
X43297Y89800D01*
Y95798D01*
X183041Y164934D02*
X181073Y166902D01*
X177137D01*
X175169Y164934D01*
Y162966D01*
X177137Y160998D01*
X181073D01*
X183041Y159030D01*
Y157062D01*
X181073Y155095D01*
X177137D01*
X175169Y157062D01*
X186977Y166902D02*
X194848D01*
X190912D01*
Y155095D01*
X198784D02*
Y166902D01*
X202719Y162966D01*
X206655Y166902D01*
Y155095D01*
X210591Y164934D02*
X212559Y166902D01*
X216494D01*
X218462Y164934D01*
Y162966D01*
X216494Y160998D01*
X214527D01*
X216494D01*
X218462Y159030D01*
Y157062D01*
X216494Y155095D01*
X212559D01*
X210591Y157062D01*
X230270Y155095D02*
X222398D01*
X230270Y162966D01*
Y164934D01*
X228302Y166902D01*
X224366D01*
X222398Y164934D01*
X242077Y166902D02*
X234205D01*
Y160998D01*
X238141D01*
X234205D01*
Y155095D01*
X246012D02*
X249948D01*
X247980D01*
Y166902D01*
X246012Y164934D01*
X255852D02*
X257820Y166902D01*
X261755D01*
X263723Y164934D01*
Y157062D01*
X261755Y155095D01*
X257820D01*
X255852Y157062D01*
Y164934D01*
X267659D02*
X269627Y166902D01*
X273563D01*
X275530Y164934D01*
Y162966D01*
X273563Y160998D01*
X271595D01*
X273563D01*
X275530Y159030D01*
Y157062D01*
X273563Y155095D01*
X269627D01*
X267659Y157062D01*
X287337Y162966D02*
X281434D01*
X279466Y160998D01*
Y157062D01*
X281434Y155095D01*
X287337D01*
X291273Y164934D02*
X293241Y166902D01*
X297177D01*
X299145Y164934D01*
Y162966D01*
X297177Y160998D01*
X299145Y159030D01*
Y157062D01*
X297177Y155095D01*
X293241D01*
X291273Y157062D01*
Y159030D01*
X293241Y160998D01*
X291273Y162966D01*
Y164934D01*
X293241Y160998D02*
X297177D01*
X305048Y164934D02*
Y162966D01*
X303080D01*
X307016D01*
X305048D01*
Y157062D01*
X307016Y155095D01*
X320791Y166902D02*
X316856Y164934D01*
X312920Y160998D01*
Y157062D01*
X314888Y155095D01*
X318823D01*
X320791Y157062D01*
Y159030D01*
X318823Y160998D01*
X312920D01*
X54211Y95796D02*
X56877D01*
X55544D01*
Y101128D01*
X54211D01*
X60875Y95796D02*
Y101128D01*
X64874D01*
X66207Y99795D01*
Y95796D01*
X68873Y99795D02*
X74204D01*
X52711Y18296D02*
X55377D01*
X54044D01*
Y23628D01*
X52711D01*
X59376Y18296D02*
Y23628D01*
X63374D01*
X64707Y22295D01*
Y18296D01*
X67373Y22295D02*
X72704D01*
X70039Y24961D02*
Y19629D01*
X115484Y18543D02*
X118149D01*
X119482Y19876D01*
Y22542D01*
X118149Y23875D01*
X115484D01*
X114151Y22542D01*
Y19876D01*
X115484Y18543D01*
X122148Y23875D02*
Y19876D01*
X123481Y18543D01*
X127480D01*
Y23875D01*
X131478Y25208D02*
Y23875D01*
X130146D01*
X132811D01*
X131478D01*
Y19876D01*
X132811Y18543D01*
X136810Y22542D02*
X142142D01*
X139476Y25208D02*
Y19876D01*
X118044Y96296D02*
X120710D01*
X122043Y97629D01*
Y100295D01*
X120710Y101628D01*
X118044D01*
X116711Y100295D01*
Y97629D01*
X118044Y96296D01*
X124708Y101628D02*
Y97629D01*
X126041Y96296D01*
X130040D01*
Y101628D01*
X134039Y102961D02*
Y101628D01*
X132706D01*
X135372D01*
X134039D01*
Y97629D01*
X135372Y96296D01*
X139370Y100295D02*
X144702D01*
D12*
X257000Y106000D02*
X329500D01*
X68000Y116500D02*
Y169000D01*
X372500Y132000D02*
Y164500D01*
D13*
X176841Y72510D02*
X178415D01*
X177628D01*
Y67788D01*
X176841D01*
X178415D01*
X180776Y72510D02*
X182350D01*
X181563D01*
Y67788D01*
X180776D01*
X182350D01*
X187860Y71723D02*
X187073Y72510D01*
X185498D01*
X184711Y71723D01*
Y68575D01*
X185498Y67788D01*
X187073D01*
X187860Y68575D01*
X189434Y70149D02*
X192582D01*
X197305Y71723D02*
X196518Y72510D01*
X194943D01*
X194156Y71723D01*
Y68575D01*
X194943Y67788D01*
X196518D01*
X197305Y68575D01*
X199666Y67788D02*
X201240D01*
X202027Y68575D01*
Y70149D01*
X201240Y70936D01*
X199666D01*
X198879Y70149D01*
Y68575D01*
X199666Y67788D01*
X203601D02*
Y70936D01*
X205962D01*
X206750Y70149D01*
Y67788D01*
X208324D02*
Y70936D01*
X210685D01*
X211472Y70149D01*
Y67788D01*
X215407D02*
X213833D01*
X213046Y68575D01*
Y70149D01*
X213833Y70936D01*
X215407D01*
X216195Y70149D01*
Y69362D01*
X213046D01*
X220917Y70936D02*
X218556D01*
X217769Y70149D01*
Y68575D01*
X218556Y67788D01*
X220917D01*
X223278Y71723D02*
Y70936D01*
X222491D01*
X224065D01*
X223278D01*
Y68575D01*
X224065Y67788D01*
X227214D02*
X228788D01*
X229575Y68575D01*
Y70149D01*
X228788Y70936D01*
X227214D01*
X226427Y70149D01*
Y68575D01*
X227214Y67788D01*
X231149Y70936D02*
Y67788D01*
Y69362D01*
X231936Y70149D01*
X232723Y70936D01*
X233510D01*
X183761Y80572D02*
X184548Y81359D01*
X186122D01*
X186909Y80572D01*
Y77424D01*
X186122Y76637D01*
X184548D01*
X183761Y77424D01*
Y80572D01*
X188483Y76637D02*
Y77424D01*
X189270D01*
Y76637D01*
X188483D01*
X192419Y77424D02*
X193205Y76637D01*
X194780D01*
X195567Y77424D01*
Y80572D01*
X194780Y81359D01*
X193205D01*
X192419Y80572D01*
Y79785D01*
X193205Y78998D01*
X195567D01*
X200289Y81359D02*
X198715Y80572D01*
X197141Y78998D01*
Y77424D01*
X197928Y76637D01*
X199502D01*
X200289Y77424D01*
Y78211D01*
X199502Y78998D01*
X197141D01*
X202650Y82146D02*
Y80572D01*
X201863Y79785D01*
X207373Y81359D02*
X205799D01*
X205012Y80572D01*
Y77424D01*
X205799Y76637D01*
X207373D01*
X208160Y77424D01*
Y80572D01*
X207373Y81359D01*
X209734D02*
Y76637D01*
X212882D01*
X217605Y81359D02*
X214457D01*
Y76637D01*
X217605D01*
X214457Y78998D02*
X216031D01*
X219179Y81359D02*
Y76637D01*
X221540D01*
X222327Y77424D01*
Y80572D01*
X221540Y81359D01*
X219179D01*
M02*
