G04*
G04 #@! TF.GenerationSoftware,Altium Limited,Altium Designer,20.0.13 (296)*
G04*
G04 Layer_Color=128*
%FSLAX25Y25*%
%MOIN*%
G70*
G01*
G75*
%ADD55C,0.00200*%
D55*
X40138Y147000D02*
X44862D01*
X42500Y144638D02*
Y149362D01*
X50138Y147000D02*
X54862D01*
X52500Y144638D02*
Y149362D01*
X40138Y137000D02*
X44862D01*
X42500Y134638D02*
Y139362D01*
X50138Y137000D02*
X54862D01*
X52500Y134638D02*
Y139362D01*
X40138Y127000D02*
X44862D01*
X42500Y124638D02*
Y129362D01*
X50138Y127000D02*
X54862D01*
X52500Y124638D02*
Y129362D01*
X40138Y117000D02*
X44862D01*
X42500Y114638D02*
Y119362D01*
X50148Y117010D02*
X54872D01*
X52510Y114648D02*
Y119372D01*
X135250Y197500D02*
X138750D01*
X137000Y195750D02*
Y199250D01*
X145250Y197500D02*
X148750D01*
X147000Y195750D02*
Y199250D01*
X155250Y197500D02*
X158750D01*
X157000Y195750D02*
Y199250D01*
X165250Y197500D02*
X168750D01*
X167000Y195750D02*
Y199250D01*
X175250Y197500D02*
X178750D01*
X177000Y195750D02*
Y199250D01*
X185250Y197500D02*
X188750D01*
X187000Y195750D02*
Y199250D01*
X195250Y197500D02*
X198750D01*
X197000Y195750D02*
Y199250D01*
X205250Y197500D02*
X208750D01*
X207000Y195750D02*
Y199250D01*
X215250Y197500D02*
X218750D01*
X217000Y195750D02*
Y199250D01*
X225250Y197500D02*
X228750D01*
X227000Y195750D02*
Y199250D01*
X235250Y197500D02*
X238750D01*
X237000Y195750D02*
Y199250D01*
X245250Y197500D02*
X248750D01*
X247000Y195750D02*
Y199250D01*
X255250Y197500D02*
X258750D01*
X257000Y195750D02*
Y199250D01*
X265250Y197500D02*
X268750D01*
X267000Y195750D02*
Y199250D01*
X275250Y197500D02*
X278750D01*
X277000Y195750D02*
Y199250D01*
X285250Y197500D02*
X288750D01*
X287000Y195750D02*
Y199250D01*
X295250Y197500D02*
X298750D01*
X297000Y195750D02*
Y199250D01*
X305250Y197500D02*
X308750D01*
X307000Y195750D02*
Y199250D01*
X315250Y197500D02*
X318750D01*
X317000Y195750D02*
Y199250D01*
X325250Y197500D02*
X328750D01*
X327000Y195750D02*
Y199250D01*
X325250Y137500D02*
X328750D01*
X327000Y135750D02*
Y139250D01*
X315250Y137500D02*
X318750D01*
X317000Y135750D02*
Y139250D01*
X305250Y137500D02*
X308750D01*
X307000Y135750D02*
Y139250D01*
X295250Y137500D02*
X298750D01*
X297000Y135750D02*
Y139250D01*
X285250Y137500D02*
X288750D01*
X287000Y135750D02*
Y139250D01*
X275250Y137500D02*
X278750D01*
X277000Y135750D02*
Y139250D01*
X265250Y137500D02*
X268750D01*
X267000Y135750D02*
Y139250D01*
X255250Y137500D02*
X258750D01*
X257000Y135750D02*
Y139250D01*
X245250Y137500D02*
X248750D01*
X247000Y135750D02*
Y139250D01*
X235250Y137500D02*
X238750D01*
X237000Y135750D02*
Y139250D01*
X225250Y137500D02*
X228750D01*
X227000Y135750D02*
Y139250D01*
X215250Y137500D02*
X218750D01*
X217000Y135750D02*
Y139250D01*
X205250Y137500D02*
X208750D01*
X207000Y135750D02*
Y139250D01*
X195250Y137500D02*
X198750D01*
X197000Y135750D02*
Y139250D01*
X185250Y137500D02*
X188750D01*
X187000Y135750D02*
Y139250D01*
X175250Y137500D02*
X178750D01*
X177000Y135750D02*
Y139250D01*
X165250Y137500D02*
X168750D01*
X167000Y135750D02*
Y139250D01*
X155250Y137500D02*
X158750D01*
X157000Y135750D02*
Y139250D01*
X145250Y137500D02*
X148750D01*
X147000Y135750D02*
Y139250D01*
X135250Y137500D02*
X138750D01*
X137000Y135750D02*
Y139250D01*
X18700Y69189D02*
X22300D01*
X20500Y67389D02*
Y70989D01*
X18700Y81000D02*
X22300D01*
X20500Y79200D02*
Y82800D01*
X18700Y92811D02*
X22300D01*
X20500Y91011D02*
Y94611D01*
X18925Y103835D02*
X22075D01*
X20500Y102260D02*
Y105409D01*
X18925Y58165D02*
X22075D01*
X20500Y56591D02*
Y59740D01*
X260250Y111000D02*
X263750D01*
X262000Y109250D02*
Y112750D01*
X270250Y111000D02*
X273750D01*
X272000Y109250D02*
Y112750D01*
X280250Y111000D02*
X283750D01*
X282000Y109250D02*
Y112750D01*
X290250Y111000D02*
X293750D01*
X292000Y109250D02*
Y112750D01*
X300250Y111000D02*
X303750D01*
X302000Y109250D02*
Y112750D01*
X310250Y111000D02*
X313750D01*
X312000Y109250D02*
Y112750D01*
X320250Y111000D02*
X323750D01*
X322000Y109250D02*
Y112750D01*
X330250Y111000D02*
X333750D01*
X332000Y109250D02*
Y112750D01*
X71250Y164000D02*
X74750D01*
X73000Y162250D02*
Y165750D01*
X71250Y154000D02*
X74750D01*
X73000Y152250D02*
Y155750D01*
X71250Y144000D02*
X74750D01*
X73000Y142250D02*
Y145750D01*
X71250Y134000D02*
X74750D01*
X73000Y132250D02*
Y135750D01*
X71250Y124000D02*
X74750D01*
X73000Y122250D02*
Y125750D01*
X71250Y114000D02*
X74750D01*
X73000Y112250D02*
Y115750D01*
X375750Y129500D02*
X379250D01*
X377500Y127750D02*
Y131250D01*
X375750Y139500D02*
X379250D01*
X377500Y137750D02*
Y141250D01*
X375750Y149500D02*
X379250D01*
X377500Y147750D02*
Y151250D01*
X375750Y159500D02*
X379250D01*
X377500Y157750D02*
Y161250D01*
X212531Y110500D02*
X216469D01*
X214500Y108531D02*
Y112469D01*
X202532Y110500D02*
X206469D01*
X204500Y108531D02*
Y112469D01*
X192532Y110500D02*
X196468D01*
X194500Y108531D02*
Y112469D01*
X182531Y110490D02*
X186469D01*
X184500Y108521D02*
Y112459D01*
X125462Y45499D02*
X129006D01*
X127234Y43727D02*
Y47271D01*
X125462Y78492D02*
X129006D01*
X127234Y76720D02*
Y80264D01*
X60728Y45500D02*
X64272D01*
X62500Y43728D02*
Y47272D01*
X60816Y78492D02*
X64360D01*
X62588Y76720D02*
Y80264D01*
X125462Y35500D02*
X129006D01*
X127234Y33728D02*
Y37272D01*
X125462Y88492D02*
X129006D01*
X127234Y86720D02*
Y90264D01*
X60816Y35500D02*
X64360D01*
X62588Y33728D02*
Y37272D01*
X60816Y88492D02*
X64360D01*
X62588Y86720D02*
Y90264D01*
X353441Y87217D02*
X358559D01*
X356000Y84658D02*
Y89776D01*
X353441Y69500D02*
X358559D01*
X356000Y66941D02*
Y72059D01*
X13595Y135659D02*
X25406D01*
X19501Y129754D02*
Y141565D01*
X13595Y155344D02*
X25406D01*
X19501Y149439D02*
Y161250D01*
X33465Y19713D02*
X45276D01*
X39370Y13807D02*
Y25618D01*
X38583Y27587D02*
X40157D01*
X39370Y26799D02*
Y28374D01*
X33032Y25264D02*
X34607D01*
X33819Y24476D02*
Y26051D01*
X30709Y19713D02*
X32284D01*
X31496Y18925D02*
Y20500D01*
X33032Y14162D02*
X34607D01*
X33819Y13374D02*
Y14949D01*
X38583Y11839D02*
X40157D01*
X39370Y11051D02*
Y12626D01*
X44134Y14162D02*
X45709D01*
X44921Y13374D02*
Y14949D01*
X46457Y19713D02*
X48031D01*
X47244Y18925D02*
Y20500D01*
X44134Y25264D02*
X45709D01*
X44921Y24476D02*
Y26051D01*
X348425Y19685D02*
X360236D01*
X354331Y13780D02*
Y25591D01*
X353543Y27559D02*
X355118D01*
X354331Y26772D02*
Y28346D01*
X347992Y25236D02*
X349567D01*
X348780Y24449D02*
Y26023D01*
X345669Y19685D02*
X347244D01*
X346457Y18898D02*
Y20472D01*
X347992Y14134D02*
X349567D01*
X348780Y13347D02*
Y14921D01*
X353543Y11811D02*
X355118D01*
X354331Y11024D02*
Y12598D01*
X359094Y14134D02*
X360669D01*
X359882Y13347D02*
Y14921D01*
X361417Y19685D02*
X362992D01*
X362205Y18898D02*
Y20472D01*
X359094Y25236D02*
X360669D01*
X359882Y24449D02*
Y26023D01*
X348425Y196850D02*
X360236D01*
X354331Y190945D02*
Y202756D01*
X353543Y204724D02*
X355118D01*
X354331Y203937D02*
Y205512D01*
X347992Y202401D02*
X349567D01*
X348780Y201614D02*
Y203189D01*
X345669Y196850D02*
X347244D01*
X346457Y196063D02*
Y197638D01*
X347992Y191299D02*
X349567D01*
X348780Y190512D02*
Y192087D01*
X353543Y188976D02*
X355118D01*
X354331Y188189D02*
Y189764D01*
X359094Y191299D02*
X360669D01*
X359882Y190512D02*
Y192087D01*
X361417Y196850D02*
X362992D01*
X362205Y196063D02*
Y197638D01*
X359094Y202401D02*
X360669D01*
X359882Y201614D02*
Y203189D01*
X33465Y196878D02*
X45276D01*
X39370Y190973D02*
Y202784D01*
X38583Y204752D02*
X40157D01*
X39370Y203965D02*
Y205540D01*
X33032Y202429D02*
X34607D01*
X33819Y201642D02*
Y203217D01*
X30709Y196878D02*
X32284D01*
X31496Y196091D02*
Y197666D01*
X33032Y191327D02*
X34607D01*
X33819Y190540D02*
Y192115D01*
X38583Y189004D02*
X40157D01*
X39370Y188217D02*
Y189792D01*
X44134Y191327D02*
X45709D01*
X44921Y190540D02*
Y192115D01*
X46457Y196878D02*
X48031D01*
X47244Y196091D02*
Y197666D01*
X44134Y202429D02*
X45709D01*
X44921Y201642D02*
Y203217D01*
X186572Y181410D02*
X187772D01*
X187172Y180810D02*
Y182010D01*
X227900Y167000D02*
X229100D01*
X228500Y166400D02*
Y167600D01*
X225900Y181500D02*
X227100D01*
X226500Y180900D02*
Y182100D01*
X351266Y111866D02*
X352466D01*
X351866Y111266D02*
Y112466D01*
X337000Y97000D02*
X339000D01*
X338000Y96000D02*
Y98000D01*
X319000Y79500D02*
X321000D01*
X320000Y78500D02*
Y80500D01*
X377400Y63000D02*
X378600D01*
X378000Y62400D02*
Y63600D01*
X362400Y63000D02*
X363600D01*
X363000Y62400D02*
Y63600D01*
X377400Y112000D02*
X378600D01*
X378000Y111400D02*
Y112600D01*
X362400Y112000D02*
X363600D01*
X363000Y111400D02*
Y112600D01*
X240900Y165500D02*
X242100D01*
X241500Y164900D02*
Y166100D01*
X199900Y92500D02*
X201100D01*
X200500Y91900D02*
Y93100D01*
X251400Y149500D02*
X252600D01*
X252000Y148900D02*
Y150100D01*
X87593Y185193D02*
X88793D01*
X88193Y184593D02*
Y185793D01*
X322400Y31000D02*
X323600D01*
X323000Y30400D02*
Y31600D01*
X75900Y183500D02*
X77100D01*
X76500Y182900D02*
Y184100D01*
X81900Y184500D02*
X83100D01*
X82500Y183900D02*
Y185100D01*
X93400Y209500D02*
X94600D01*
X94000Y208900D02*
Y210100D01*
X69900Y185000D02*
X71100D01*
X70500Y184400D02*
Y185600D01*
X63900Y185000D02*
X65100D01*
X64500Y184400D02*
Y185600D01*
X328400Y31500D02*
X329600D01*
X329000Y30900D02*
Y32100D01*
X310605Y31262D02*
X311805D01*
X311205Y30662D02*
Y31862D01*
X304779Y31378D02*
X305978D01*
X305379Y30779D02*
Y31978D01*
X298900Y31500D02*
X300100D01*
X299500Y30900D02*
Y32100D01*
M02*
