G04 EasyEDA Pro v1.9.28, 2023-09-17 19:19:00*
G04 Gerber Generator version 0.3*G04*
G04 #@! TF.GenerationSoftware,Altium Limited,Altium Designer,20.0.13 (296)*
G04*
G04 Layer_Color=16711935*
%FSLAX25Y25*%
%MOIN*%
G70*
G01*
G75*
%ADD20C,0.07487*%
%ADD21C,0.07000*%
%ADD22C,0.06400*%
%ADD23O,0.09061X0.05912*%
%ADD24C,0.06600*%
%ADD25R,0.06600X0.06600*%
%ADD26R,0.06600X0.06600*%
%ADD27C,0.06896*%
%ADD28O,0.12211X0.06400*%
%ADD29C,0.05918*%
%ADD30C,0.16548*%
%ADD31C,0.20085*%
%ADD32C,0.02762*%
D20*
X42500Y147000D02*
D03*
X52500D02*
D03*
X42500Y137000D02*
D03*
X52500D02*
D03*
X42500Y127000D02*
D03*
X52500D02*
D03*
X42500Y117000D02*
D03*
X52510Y117010D02*
D03*
D21*
X137000Y197500D02*
D03*
X147000D02*
D03*
X157000D02*
D03*
X167000D02*
D03*
X177000D02*
D03*
X187000D02*
D03*
X197000D02*
D03*
X207000D02*
D03*
X217000D02*
D03*
X227000D02*
D03*
X237000D02*
D03*
X247000D02*
D03*
X257000D02*
D03*
X267000D02*
D03*
X277000D02*
D03*
X287000D02*
D03*
X297000D02*
D03*
X307000D02*
D03*
X317000D02*
D03*
X327000D02*
D03*
X327000Y137500D02*
D03*
X317000D02*
D03*
X307000D02*
D03*
X297000D02*
D03*
X287000D02*
D03*
X277000D02*
D03*
X267000D02*
D03*
X257000D02*
D03*
X247000D02*
D03*
X237000D02*
D03*
X227000D02*
D03*
X217000D02*
D03*
X207000D02*
D03*
X197000D02*
D03*
X187000D02*
D03*
X177000D02*
D03*
X167000D02*
D03*
X157000D02*
D03*
X147000D02*
D03*
X137000Y137500D02*
D03*
D22*
X20500Y69189D02*
D03*
Y81000D02*
D03*
Y92811D02*
D03*
D23*
Y103835D02*
D03*
Y58165D02*
D03*
D24*
X262000Y111000D02*
D03*
X272000D02*
D03*
X282000D02*
D03*
X292000D02*
D03*
X302000D02*
D03*
X312000D02*
D03*
X322000D02*
D03*
X73000Y164000D02*
D03*
Y154000D02*
D03*
Y144000D02*
D03*
Y134000D02*
D03*
Y124000D02*
D03*
X377500Y139500D02*
D03*
Y149500D02*
D03*
Y159500D02*
D03*
D25*
X332000Y111000D02*
D03*
D26*
X73000Y114000D02*
D03*
X377500Y129500D02*
D03*
D27*
X214500Y110500D02*
D03*
X204500D02*
D03*
X194500D02*
D03*
X184500Y110490D02*
D03*
D28*
X127234Y45499D02*
D03*
Y78492D02*
D03*
X62500Y45500D02*
D03*
X62588Y78492D02*
D03*
X127234Y35500D02*
D03*
X127234Y88492D02*
D03*
X62588Y35500D02*
D03*
Y88492D02*
D03*
D29*
X356000Y87217D02*
D03*
Y69500D02*
D03*
D30*
X19501Y135659D02*
D03*
Y155344D02*
D03*
D31*
X39370Y19713D02*
D03*
X354331Y19685D02*
D03*
Y196850D02*
D03*
X39370Y196878D02*
D03*
D32*
Y27587D02*
D03*
X33819Y25264D02*
D03*
X31496Y19713D02*
D03*
X33819Y14162D02*
D03*
X39370Y11839D02*
D03*
X44921Y14162D02*
D03*
X47244Y19713D02*
D03*
X44921Y25264D02*
D03*
X354331Y27559D02*
D03*
X348780Y25236D02*
D03*
X346457Y19685D02*
D03*
X348780Y14134D02*
D03*
X354331Y11811D02*
D03*
X359882Y14134D02*
D03*
X362205Y19685D02*
D03*
X359882Y25236D02*
D03*
X354331Y204724D02*
D03*
X348780Y202401D02*
D03*
X346457Y196850D02*
D03*
X348780Y191299D02*
D03*
X354331Y188976D02*
D03*
X359882Y191299D02*
D03*
X362205Y196850D02*
D03*
X359882Y202401D02*
D03*
X39370Y204752D02*
D03*
X33819Y202429D02*
D03*
X31496Y196878D02*
D03*
X33819Y191327D02*
D03*
X39370Y189004D02*
D03*
X44921Y191327D02*
D03*
X47244Y196878D02*
D03*
X44921Y202429D02*
D03*
M02*
