G04 EasyEDA Pro v1.9.28, 2023-09-17 19:19:00*
G04 Gerber Generator version 0.3*G04*
G04 #@! TF.GenerationSoftware,Altium Limited,Altium Designer,20.0.13 (296)*
G04*
G04 Layer_Physical_Order=2*
G04 Layer_Color=16711680*
%FSLAX25Y25*%
%MOIN*%
G70*
G01*
G75*
%ADD10C,0.01000*%
%ADD33C,0.01300*%
%ADD34C,0.02000*%
%ADD36C,0.01500*%
%ADD37C,0.03000*%
%ADD38C,0.07087*%
%ADD39C,0.06200*%
%ADD40C,0.06000*%
%ADD41O,0.08661X0.05512*%
%ADD42R,0.06200X0.06200*%
%ADD43R,0.06200X0.06200*%
%ADD44C,0.06496*%
%ADD45O,0.11811X0.06000*%
%ADD46C,0.05118*%
%ADD47C,0.15748*%
%ADD48C,0.19685*%
%ADD49C,0.02362*%
%ADD50C,0.02400*%
%ADD51C,0.04000*%
G36*
X56046Y136430D02*
X56103Y135476D01*
X56157Y135058D01*
X56228Y134679D01*
X56316Y134339D01*
X56421Y134039D01*
X56542Y133777D01*
X56681Y133554D01*
X56837Y133370D01*
X56130Y132663D01*
X55946Y132819D01*
X55723Y132957D01*
X55462Y133079D01*
X55160Y133184D01*
X54821Y133272D01*
X54442Y133343D01*
X54024Y133397D01*
X53070Y133454D01*
X52535Y133457D01*
X56043Y136965D01*
X56046Y136430D01*
D02*
G37*
G36*
X42465Y133457D02*
X41930Y133454D01*
X40976Y133397D01*
X40558Y133343D01*
X40179Y133272D01*
X39840Y133184D01*
X39538Y133079D01*
X39277Y132957D01*
X39054Y132819D01*
X38870Y132663D01*
X38163Y133370D01*
X38319Y133554D01*
X38458Y133777D01*
X38579Y134039D01*
X38684Y134339D01*
X38772Y134679D01*
X38843Y135058D01*
X38897Y135476D01*
X38954Y136430D01*
X38957Y136965D01*
X42465Y133457D01*
D02*
G37*
G36*
X76832Y127125D02*
X76689Y126958D01*
X76561Y126759D01*
X76449Y126529D01*
X76352Y126267D01*
X76271Y125974D01*
X76206Y125648D01*
X76156Y125292D01*
X76103Y124483D01*
X76100Y124031D01*
X73031Y127100D01*
X73483Y127103D01*
X74292Y127156D01*
X74648Y127206D01*
X74974Y127271D01*
X75267Y127352D01*
X75529Y127449D01*
X75759Y127561D01*
X75958Y127689D01*
X76125Y127832D01*
X76832Y127125D01*
D02*
G37*
G36*
X56046Y126429D02*
X56103Y125476D01*
X56157Y125058D01*
X56228Y124680D01*
X56316Y124339D01*
X56421Y124039D01*
X56542Y123777D01*
X56681Y123554D01*
X56837Y123370D01*
X56130Y122663D01*
X55946Y122819D01*
X55723Y122958D01*
X55462Y123079D01*
X55160Y123184D01*
X54821Y123272D01*
X54442Y123343D01*
X54024Y123397D01*
X53070Y123454D01*
X52535Y123457D01*
X56043Y126965D01*
X56046Y126429D01*
D02*
G37*
G36*
X42465Y123457D02*
X41930Y123454D01*
X40976Y123397D01*
X40558Y123343D01*
X40179Y123272D01*
X39840Y123184D01*
X39538Y123079D01*
X39277Y122958D01*
X39054Y122819D01*
X38870Y122663D01*
X38163Y123370D01*
X38319Y123554D01*
X38458Y123777D01*
X38579Y124039D01*
X38684Y124339D01*
X38772Y124680D01*
X38843Y125058D01*
X38897Y125476D01*
X38954Y126429D01*
X38957Y126965D01*
X42465Y123457D01*
D02*
G37*
G36*
X76795Y117088D02*
X76596Y116882D01*
X76282Y116513D01*
X76168Y116350D01*
X76082Y116201D01*
X76024Y116067D01*
X75995Y115947D01*
X75994Y115842D01*
X76021Y115751D01*
X76076Y115674D01*
X74674Y117076D01*
X74751Y117021D01*
X74842Y116994D01*
X74947Y116995D01*
X75067Y117024D01*
X75201Y117082D01*
X75350Y117168D01*
X75513Y117282D01*
X75690Y117425D01*
X76088Y117795D01*
X76795Y117088D01*
D02*
G37*
G36*
X38163Y143370D02*
X38319Y143554D01*
X38458Y143777D01*
X38579Y144039D01*
X38684Y144340D01*
X38772Y144679D01*
X38843Y145058D01*
X38897Y145476D01*
X38954Y146430D01*
X38957Y146965D01*
X42465Y143457D01*
X41930Y143454D01*
X40976Y143397D01*
X40558Y143343D01*
X40179Y143272D01*
X39840Y143184D01*
X39538Y143079D01*
X39277Y142957D01*
X39054Y142819D01*
X38870Y142663D01*
X38163Y143370D01*
D02*
G37*
G36*
X56130Y142663D02*
X55946Y142819D01*
X55723Y142957D01*
X55462Y143079D01*
X55160Y143184D01*
X54821Y143272D01*
X54442Y143343D01*
X54024Y143397D01*
X53070Y143454D01*
X52535Y143457D01*
X56043Y146965D01*
X56046Y146430D01*
X56103Y145476D01*
X56157Y145058D01*
X56228Y144679D01*
X56316Y144340D01*
X56421Y144039D01*
X56542Y143777D01*
X56681Y143554D01*
X56837Y143370D01*
X56130Y142663D01*
D02*
G37*
G36*
X76832Y147125D02*
X76689Y146958D01*
X76561Y146759D01*
X76449Y146529D01*
X76352Y146267D01*
X76271Y145974D01*
X76206Y145649D01*
X76156Y145292D01*
X76103Y144483D01*
X76100Y144031D01*
X73031Y147100D01*
X73483Y147103D01*
X74292Y147156D01*
X74648Y147206D01*
X74974Y147271D01*
X75267Y147352D01*
X75529Y147449D01*
X75759Y147561D01*
X75958Y147689D01*
X76125Y147832D01*
X76832Y147125D01*
D02*
G37*
G36*
Y157125D02*
X76689Y156958D01*
X76561Y156759D01*
X76449Y156529D01*
X76352Y156267D01*
X76271Y155974D01*
X76206Y155649D01*
X76156Y155292D01*
X76103Y154483D01*
X76100Y154031D01*
X73031Y157100D01*
X73483Y157103D01*
X74292Y157156D01*
X74648Y157206D01*
X74974Y157271D01*
X75267Y157352D01*
X75529Y157449D01*
X75759Y157561D01*
X75958Y157689D01*
X76125Y157832D01*
X76832Y157125D01*
D02*
G37*
G36*
X65427Y183366D02*
X65339Y183449D01*
X65250Y183524D01*
X65160Y183589D01*
X65070Y183646D01*
X64979Y183694D01*
X64887Y183733D01*
X64794Y183763D01*
X64701Y183784D01*
X64607Y183797D01*
X64512Y183800D01*
X65700Y184988D01*
X65703Y184893D01*
X65716Y184799D01*
X65737Y184706D01*
X65767Y184613D01*
X65806Y184521D01*
X65854Y184430D01*
X65911Y184340D01*
X65976Y184250D01*
X66051Y184161D01*
X66134Y184073D01*
X65427Y183366D01*
D02*
G37*
G36*
X71427D02*
X71339Y183449D01*
X71250Y183524D01*
X71160Y183589D01*
X71070Y183646D01*
X70979Y183694D01*
X70887Y183733D01*
X70794Y183763D01*
X70701Y183784D01*
X70607Y183797D01*
X70512Y183800D01*
X71700Y184988D01*
X71703Y184893D01*
X71716Y184799D01*
X71737Y184706D01*
X71767Y184613D01*
X71806Y184521D01*
X71854Y184430D01*
X71911Y184340D01*
X71976Y184250D01*
X72051Y184161D01*
X72134Y184073D01*
X71427Y183366D01*
D02*
G37*
G36*
X77141Y181798D02*
X77044Y181894D01*
X76673Y182220D01*
X76622Y182255D01*
X76578Y182280D01*
X76541Y182295D01*
X76512Y182300D01*
X77700Y183488D01*
X77705Y183459D01*
X77720Y183423D01*
X77745Y183378D01*
X77780Y183327D01*
X77825Y183268D01*
X77945Y183127D01*
X78202Y182859D01*
X77141Y181798D01*
D02*
G37*
G36*
X83427Y182866D02*
X83339Y182949D01*
X83250Y183024D01*
X83160Y183089D01*
X83070Y183146D01*
X82979Y183194D01*
X82887Y183233D01*
X82794Y183263D01*
X82701Y183284D01*
X82607Y183297D01*
X82512Y183300D01*
X83700Y184488D01*
X83703Y184393D01*
X83716Y184299D01*
X83737Y184206D01*
X83767Y184113D01*
X83806Y184021D01*
X83854Y183930D01*
X83911Y183840D01*
X83976Y183750D01*
X84051Y183661D01*
X84134Y183573D01*
X83427Y182866D01*
D02*
G37*
G36*
X89850Y184443D02*
X89713Y184442D01*
X89220Y184410D01*
X89159Y184399D01*
X89110Y184385D01*
X89074Y184370D01*
X89050Y184353D01*
Y186033D01*
X89074Y186016D01*
X89110Y186000D01*
X89159Y185987D01*
X89220Y185975D01*
X89294Y185965D01*
X89479Y185951D01*
X89850Y185943D01*
Y184443D01*
D02*
G37*
G36*
X132812Y135020D02*
X132930Y135157D01*
X133047Y135334D01*
X133164Y135550D01*
X133280Y135807D01*
X133397Y136103D01*
X133629Y136813D01*
X133860Y137683D01*
X133975Y138177D01*
X136263Y134489D01*
X135863Y134577D01*
X135487Y134637D01*
X135135Y134670D01*
X134807Y134676D01*
X134504Y134655D01*
X134225Y134607D01*
X133970Y134532D01*
X133740Y134430D01*
X133533Y134301D01*
X133351Y134144D01*
X132812Y135020D01*
D02*
G37*
G36*
X143168Y134375D02*
X143311Y134542D01*
X143439Y134741D01*
X143551Y134971D01*
X143648Y135233D01*
X143729Y135526D01*
X143794Y135852D01*
X143844Y136208D01*
X143897Y137017D01*
X143900Y137469D01*
X146969Y134400D01*
X146517Y134397D01*
X145708Y134344D01*
X145352Y134294D01*
X145026Y134229D01*
X144733Y134148D01*
X144471Y134051D01*
X144241Y133939D01*
X144042Y133811D01*
X143875Y133668D01*
X143168Y134375D01*
D02*
G37*
G36*
X153168D02*
X153311Y134542D01*
X153439Y134741D01*
X153551Y134971D01*
X153648Y135233D01*
X153729Y135526D01*
X153794Y135852D01*
X153844Y136208D01*
X153897Y137017D01*
X153900Y137469D01*
X156969Y134400D01*
X156517Y134397D01*
X155708Y134344D01*
X155351Y134294D01*
X155026Y134229D01*
X154733Y134148D01*
X154471Y134051D01*
X154241Y133939D01*
X154042Y133811D01*
X153875Y133668D01*
X153168Y134375D01*
D02*
G37*
G36*
X163168D02*
X163311Y134542D01*
X163439Y134741D01*
X163551Y134971D01*
X163648Y135233D01*
X163729Y135526D01*
X163794Y135852D01*
X163844Y136208D01*
X163897Y137017D01*
X163900Y137469D01*
X166969Y134400D01*
X166517Y134397D01*
X165708Y134344D01*
X165351Y134294D01*
X165026Y134229D01*
X164733Y134148D01*
X164471Y134051D01*
X164241Y133939D01*
X164042Y133811D01*
X163875Y133668D01*
X163168Y134375D01*
D02*
G37*
G36*
X153028Y194588D02*
X153197Y194778D01*
X153348Y194989D01*
X153481Y195223D01*
X153596Y195478D01*
X153692Y195755D01*
X153770Y196054D01*
X153830Y196375D01*
X153872Y196718D01*
X153895Y197083D01*
X153900Y197469D01*
X156969Y194401D01*
X156582Y194395D01*
X155875Y194330D01*
X155554Y194270D01*
X155255Y194192D01*
X154978Y194096D01*
X154722Y193981D01*
X154489Y193848D01*
X154278Y193697D01*
X154088Y193528D01*
X153028Y194588D01*
D02*
G37*
G36*
X199859Y94202D02*
X199956Y94106D01*
X200327Y93780D01*
X200378Y93745D01*
X200423Y93720D01*
X200459Y93705D01*
X200488Y93700D01*
X199300Y92512D01*
X199295Y92541D01*
X199280Y92577D01*
X199255Y92622D01*
X199220Y92673D01*
X199175Y92732D01*
X199055Y92873D01*
X198798Y93141D01*
X199859Y94202D01*
D02*
G37*
G36*
X196809Y106010D02*
X196638Y106164D01*
X196437Y106313D01*
X196205Y106458D01*
X195943Y106598D01*
X195651Y106734D01*
X194977Y106991D01*
X194595Y107113D01*
X193740Y107342D01*
X197642Y109677D01*
X197558Y109309D01*
X197504Y108959D01*
X197480Y108626D01*
X197485Y108311D01*
X197521Y108014D01*
X197586Y107735D01*
X197681Y107474D01*
X197806Y107230D01*
X197960Y107004D01*
X198145Y106796D01*
X196809Y106010D01*
D02*
G37*
G36*
X173168Y134375D02*
X173311Y134542D01*
X173439Y134741D01*
X173551Y134971D01*
X173648Y135233D01*
X173729Y135526D01*
X173794Y135852D01*
X173844Y136208D01*
X173897Y137017D01*
X173900Y137469D01*
X176969Y134400D01*
X176517Y134397D01*
X175708Y134344D01*
X175352Y134294D01*
X175026Y134229D01*
X174733Y134148D01*
X174471Y134051D01*
X174241Y133939D01*
X174042Y133811D01*
X173875Y133668D01*
X173168Y134375D01*
D02*
G37*
G36*
X183168D02*
X183311Y134542D01*
X183439Y134741D01*
X183551Y134971D01*
X183648Y135233D01*
X183729Y135526D01*
X183794Y135852D01*
X183844Y136208D01*
X183897Y137017D01*
X183900Y137469D01*
X186969Y134400D01*
X186517Y134397D01*
X185708Y134344D01*
X185352Y134294D01*
X185026Y134229D01*
X184733Y134148D01*
X184471Y134051D01*
X184241Y133939D01*
X184042Y133811D01*
X183875Y133668D01*
X183168Y134375D01*
D02*
G37*
G36*
X193875Y141332D02*
X194042Y141189D01*
X194241Y141061D01*
X194471Y140949D01*
X194733Y140852D01*
X195026Y140771D01*
X195352Y140706D01*
X195708Y140656D01*
X196517Y140603D01*
X196969Y140600D01*
X193900Y137531D01*
X193897Y137983D01*
X193844Y138792D01*
X193794Y139148D01*
X193729Y139474D01*
X193648Y139767D01*
X193551Y140029D01*
X193439Y140259D01*
X193311Y140458D01*
X193168Y140625D01*
X193875Y141332D01*
D02*
G37*
G36*
X187672Y183221D02*
X187676Y183099D01*
X187686Y182984D01*
X187703Y182874D01*
X187727Y182770D01*
X187757Y182672D01*
X187795Y182579D01*
X187839Y182493D01*
X187890Y182412D01*
X187948Y182336D01*
X188012Y182267D01*
X186332D01*
X186397Y182336D01*
X186455Y182412D01*
X186506Y182493D01*
X186550Y182579D01*
X186587Y182672D01*
X186618Y182770D01*
X186642Y182874D01*
X186659Y182984D01*
X186669Y183099D01*
X186672Y183221D01*
X187672D01*
D02*
G37*
G36*
X193168Y194375D02*
X193311Y194542D01*
X193439Y194741D01*
X193551Y194971D01*
X193648Y195233D01*
X193729Y195527D01*
X193794Y195852D01*
X193844Y196209D01*
X193897Y197018D01*
X193900Y197469D01*
X196969Y194401D01*
X196517Y194397D01*
X195709Y194344D01*
X195352Y194295D01*
X195026Y194229D01*
X194733Y194148D01*
X194471Y194052D01*
X194241Y193939D01*
X194042Y193812D01*
X193875Y193668D01*
X193168Y194375D01*
D02*
G37*
G36*
X252775Y148574D02*
X252718Y148498D01*
X252667Y148417D01*
X252622Y148330D01*
X252585Y148238D01*
X252554Y148140D01*
X252531Y148036D01*
X252514Y147926D01*
X252503Y147810D01*
X252500Y147689D01*
X251500D01*
X251497Y147810D01*
X251486Y147926D01*
X251469Y148036D01*
X251446Y148140D01*
X251415Y148238D01*
X251378Y148330D01*
X251333Y148417D01*
X251282Y148498D01*
X251225Y148574D01*
X251160Y148643D01*
X252840D01*
X252775Y148574D01*
D02*
G37*
G36*
X214336Y141393D02*
X214526Y141269D01*
X214752Y141153D01*
X215013Y141046D01*
X215309Y140947D01*
X215641Y140857D01*
X216411Y140703D01*
X217323Y140583D01*
X213924Y137884D01*
X213968Y138312D01*
X213992Y139084D01*
X213971Y139427D01*
X213929Y139743D01*
X213865Y140031D01*
X213779Y140290D01*
X213672Y140522D01*
X213543Y140726D01*
X213392Y140901D01*
X214181Y141526D01*
X214336Y141393D01*
D02*
G37*
G36*
X204336D02*
X204526Y141269D01*
X204752Y141153D01*
X205013Y141046D01*
X205309Y140947D01*
X205641Y140857D01*
X206411Y140703D01*
X207323Y140583D01*
X203924Y137884D01*
X203968Y138312D01*
X203992Y139084D01*
X203971Y139427D01*
X203929Y139743D01*
X203865Y140031D01*
X203779Y140290D01*
X203672Y140522D01*
X203542Y140726D01*
X203392Y140901D01*
X204181Y141526D01*
X204336Y141393D01*
D02*
G37*
G36*
X224042Y141189D02*
X224241Y141061D01*
X224471Y140949D01*
X224733Y140852D01*
X225026Y140771D01*
X225352Y140706D01*
X225708Y140656D01*
X226517Y140603D01*
X226969Y140600D01*
X223900Y137531D01*
X223897Y137983D01*
X223844Y138792D01*
X223794Y139148D01*
X223729Y139474D01*
X223648Y139767D01*
X223551Y140029D01*
X223439Y140259D01*
X223311Y140458D01*
X223168Y140625D01*
X223875Y141332D01*
X224042Y141189D01*
D02*
G37*
G36*
X278853Y134965D02*
X278318Y134355D01*
X278101Y134067D01*
X277918Y133791D01*
X277767Y133526D01*
X277650Y133273D01*
X277567Y133031D01*
X277517Y132800D01*
X277500Y132581D01*
X276500D01*
X276483Y132800D01*
X276433Y133031D01*
X276350Y133273D01*
X276233Y133526D01*
X276082Y133791D01*
X275899Y134067D01*
X275682Y134355D01*
X275147Y134965D01*
X274830Y135286D01*
X279170D01*
X278853Y134965D01*
D02*
G37*
G36*
X268853D02*
X268318Y134355D01*
X268101Y134067D01*
X267917Y133791D01*
X267767Y133526D01*
X267650Y133273D01*
X267567Y133031D01*
X267517Y132800D01*
X267500Y132581D01*
X266500D01*
X266483Y132800D01*
X266433Y133031D01*
X266350Y133273D01*
X266233Y133526D01*
X266083Y133791D01*
X265899Y134067D01*
X265682Y134355D01*
X265147Y134965D01*
X264830Y135286D01*
X269170D01*
X268853Y134965D01*
D02*
G37*
G36*
X298661Y33051D02*
X298750Y32976D01*
X298840Y32911D01*
X298930Y32854D01*
X299021Y32806D01*
X299113Y32767D01*
X299206Y32737D01*
X299299Y32716D01*
X299393Y32703D01*
X299488Y32700D01*
X298300Y31512D01*
X298297Y31607D01*
X298284Y31701D01*
X298263Y31794D01*
X298233Y31887D01*
X298194Y31979D01*
X298146Y32070D01*
X298089Y32160D01*
X298024Y32250D01*
X297949Y32339D01*
X297866Y32427D01*
X298573Y33134D01*
X298661Y33051D01*
D02*
G37*
G36*
X304737Y33080D02*
X304834Y32985D01*
X305205Y32658D01*
X305257Y32623D01*
X305301Y32598D01*
X305338Y32583D01*
X305366Y32578D01*
X304179Y31391D01*
X304174Y31420D01*
X304159Y31456D01*
X304134Y31500D01*
X304099Y31552D01*
X304054Y31611D01*
X303933Y31752D01*
X303677Y32020D01*
X304737Y33080D01*
D02*
G37*
G36*
X310278Y32896D02*
X310366Y32812D01*
X310455Y32738D01*
X310544Y32672D01*
X310635Y32616D01*
X310726Y32568D01*
X310818Y32529D01*
X310910Y32499D01*
X311004Y32477D01*
X311098Y32465D01*
X311192Y32462D01*
X310005Y31274D01*
X310001Y31368D01*
X309989Y31463D01*
X309967Y31556D01*
X309937Y31648D01*
X309898Y31740D01*
X309851Y31831D01*
X309794Y31922D01*
X309728Y32012D01*
X309654Y32100D01*
X309571Y32189D01*
X310278Y32896D01*
D02*
G37*
G36*
X322073Y32634D02*
X322161Y32551D01*
X322250Y32476D01*
X322340Y32411D01*
X322430Y32354D01*
X322521Y32306D01*
X322613Y32267D01*
X322706Y32237D01*
X322799Y32216D01*
X322893Y32203D01*
X322988Y32200D01*
X321800Y31012D01*
X321797Y31107D01*
X321784Y31201D01*
X321763Y31294D01*
X321733Y31387D01*
X321694Y31479D01*
X321646Y31570D01*
X321589Y31660D01*
X321524Y31750D01*
X321449Y31839D01*
X321366Y31927D01*
X322073Y32634D01*
D02*
G37*
G36*
X363500Y64811D02*
X363503Y64690D01*
X363514Y64574D01*
X363531Y64464D01*
X363554Y64360D01*
X363585Y64262D01*
X363622Y64170D01*
X363667Y64083D01*
X363718Y64002D01*
X363775Y63927D01*
X363840Y63857D01*
X362160D01*
X362225Y63927D01*
X362282Y64002D01*
X362333Y64083D01*
X362378Y64170D01*
X362415Y64262D01*
X362446Y64360D01*
X362469Y64464D01*
X362486Y64574D01*
X362497Y64690D01*
X362500Y64811D01*
X363500D01*
D02*
G37*
G36*
X352276Y113714D02*
X352280Y113592D01*
X352291Y113477D01*
X352309Y113368D01*
X352334Y113266D01*
X352367Y113169D01*
X352407Y113080D01*
X352454Y112996D01*
X352509Y112919D01*
X352570Y112848D01*
X352640Y112784D01*
X350964Y112658D01*
X351024Y112731D01*
X351077Y112810D01*
X351123Y112895D01*
X351164Y112984D01*
X351198Y113079D01*
X351226Y113179D01*
X351248Y113284D01*
X351264Y113394D01*
X351273Y113510D01*
X351276Y113631D01*
X352276Y113714D01*
D02*
G37*
G36*
X363500Y113811D02*
X363503Y113690D01*
X363514Y113574D01*
X363531Y113464D01*
X363554Y113360D01*
X363585Y113262D01*
X363622Y113170D01*
X363667Y113083D01*
X363718Y113002D01*
X363775Y112926D01*
X363840Y112857D01*
X362160D01*
X362225Y112926D01*
X362282Y113002D01*
X362333Y113083D01*
X362378Y113170D01*
X362415Y113262D01*
X362446Y113360D01*
X362469Y113464D01*
X362486Y113574D01*
X362497Y113690D01*
X362500Y113811D01*
X363500D01*
D02*
G37*
G36*
X377073Y113634D02*
X377161Y113551D01*
X377250Y113476D01*
X377340Y113411D01*
X377430Y113354D01*
X377521Y113306D01*
X377613Y113267D01*
X377706Y113237D01*
X377799Y113216D01*
X377893Y113203D01*
X377988Y113200D01*
X376800Y112012D01*
X376797Y112107D01*
X376784Y112201D01*
X376763Y112294D01*
X376733Y112387D01*
X376694Y112479D01*
X376646Y112570D01*
X376589Y112660D01*
X376524Y112750D01*
X376449Y112839D01*
X376366Y112927D01*
X377073Y113634D01*
D02*
G37*
G36*
X229427Y165366D02*
X229339Y165449D01*
X229250Y165524D01*
X229160Y165589D01*
X229070Y165646D01*
X228979Y165694D01*
X228887Y165733D01*
X228794Y165763D01*
X228701Y165784D01*
X228607Y165797D01*
X228512Y165800D01*
X229700Y166988D01*
X229703Y166893D01*
X229716Y166799D01*
X229737Y166706D01*
X229767Y166613D01*
X229806Y166521D01*
X229854Y166430D01*
X229911Y166340D01*
X229976Y166250D01*
X230051Y166161D01*
X230134Y166073D01*
X229427Y165366D01*
D02*
G37*
G36*
X228134Y182427D02*
X228051Y182339D01*
X227976Y182250D01*
X227911Y182160D01*
X227854Y182070D01*
X227806Y181979D01*
X227767Y181887D01*
X227737Y181794D01*
X227716Y181701D01*
X227703Y181607D01*
X227700Y181512D01*
X226512Y182700D01*
X226607Y182703D01*
X226701Y182716D01*
X226794Y182737D01*
X226887Y182767D01*
X226979Y182806D01*
X227070Y182854D01*
X227160Y182911D01*
X227250Y182976D01*
X227339Y183051D01*
X227427Y183134D01*
X228134Y182427D01*
D02*
G37*
G36*
X203875Y201332D02*
X204042Y201189D01*
X204241Y201061D01*
X204471Y200949D01*
X204733Y200852D01*
X205026Y200771D01*
X205352Y200706D01*
X205709Y200656D01*
X206517Y200603D01*
X206969Y200600D01*
X203900Y197531D01*
X203897Y197983D01*
X203844Y198792D01*
X203794Y199149D01*
X203729Y199474D01*
X203648Y199768D01*
X203551Y200029D01*
X203439Y200260D01*
X203311Y200458D01*
X203168Y200625D01*
X203875Y201332D01*
D02*
G37*
G36*
X224088Y201473D02*
X224278Y201303D01*
X224489Y201152D01*
X224722Y201019D01*
X224978Y200905D01*
X225255Y200808D01*
X225554Y200730D01*
X225875Y200670D01*
X226218Y200629D01*
X226582Y200605D01*
X226969Y200600D01*
X223900Y197531D01*
X223895Y197918D01*
X223830Y198626D01*
X223770Y198947D01*
X223692Y199246D01*
X223596Y199523D01*
X223481Y199778D01*
X223348Y200011D01*
X223197Y200223D01*
X223028Y200412D01*
X224088Y201473D01*
D02*
G37*
G36*
X241100Y163649D02*
X241098Y163784D01*
X241075Y164114D01*
X241062Y164199D01*
X241045Y164271D01*
X241025Y164331D01*
X241002Y164378D01*
X240976Y164413D01*
X240947Y164435D01*
X242553Y164925D01*
X242600Y164300D01*
X241100Y163649D01*
D02*
G37*
G36*
X236500Y192581D02*
X236483Y192800D01*
X236433Y193031D01*
X236350Y193273D01*
X236233Y193527D01*
X236083Y193792D01*
X235899Y194068D01*
X235682Y194355D01*
X235147Y194965D01*
X234830Y195287D01*
X239170D01*
X238853Y194965D01*
X238318Y194355D01*
X238101Y194068D01*
X237918Y193792D01*
X237767Y193527D01*
X237650Y193273D01*
X237567Y193031D01*
X237517Y192800D01*
X237500Y192581D01*
X236500D01*
D02*
G37*
G36*
X243875Y201332D02*
X244042Y201189D01*
X244241Y201061D01*
X244471Y200949D01*
X244733Y200852D01*
X245026Y200771D01*
X245352Y200706D01*
X245708Y200656D01*
X246517Y200603D01*
X246969Y200600D01*
X243900Y197531D01*
X243897Y197983D01*
X243844Y198792D01*
X243794Y199149D01*
X243729Y199474D01*
X243648Y199768D01*
X243551Y200029D01*
X243439Y200260D01*
X243311Y200458D01*
X243168Y200625D01*
X243875Y201332D01*
D02*
G37*
G36*
X260832Y200625D02*
X260689Y200458D01*
X260561Y200260D01*
X260449Y200029D01*
X260352Y199768D01*
X260271Y199474D01*
X260206Y199149D01*
X260156Y198792D01*
X260103Y197983D01*
X260100Y197531D01*
X257031Y200600D01*
X257483Y200603D01*
X258292Y200656D01*
X258648Y200706D01*
X258974Y200771D01*
X259267Y200852D01*
X259529Y200949D01*
X259759Y201061D01*
X259958Y201189D01*
X260125Y201332D01*
X260832Y200625D01*
D02*
G37*
G36*
X270832D02*
X270689Y200458D01*
X270561Y200260D01*
X270449Y200029D01*
X270352Y199768D01*
X270271Y199474D01*
X270206Y199149D01*
X270156Y198792D01*
X270103Y197983D01*
X270100Y197531D01*
X267031Y200600D01*
X267483Y200603D01*
X268292Y200656D01*
X268649Y200706D01*
X268974Y200771D01*
X269267Y200852D01*
X269529Y200949D01*
X269759Y201061D01*
X269958Y201189D01*
X270125Y201332D01*
X270832Y200625D01*
D02*
G37*
G36*
X273168Y194375D02*
X273311Y194542D01*
X273439Y194741D01*
X273551Y194971D01*
X273648Y195233D01*
X273729Y195527D01*
X273794Y195852D01*
X273844Y196209D01*
X273897Y197018D01*
X273900Y197469D01*
X276969Y194401D01*
X276517Y194397D01*
X275709Y194344D01*
X275352Y194295D01*
X275026Y194229D01*
X274733Y194148D01*
X274471Y194052D01*
X274241Y193939D01*
X274042Y193812D01*
X273875Y193668D01*
X273168Y194375D01*
D02*
G37*
G36*
X283168D02*
X283311Y194542D01*
X283439Y194741D01*
X283551Y194971D01*
X283648Y195233D01*
X283729Y195527D01*
X283794Y195852D01*
X283844Y196209D01*
X283897Y197018D01*
X283900Y197469D01*
X286969Y194401D01*
X286517Y194397D01*
X285708Y194344D01*
X285352Y194295D01*
X285026Y194229D01*
X284733Y194148D01*
X284471Y194052D01*
X284241Y193939D01*
X284042Y193812D01*
X283875Y193668D01*
X283168Y194375D01*
D02*
G37*
G36*
X300832Y200625D02*
X300689Y200458D01*
X300561Y200260D01*
X300449Y200029D01*
X300352Y199767D01*
X300271Y199474D01*
X300206Y199149D01*
X300156Y198792D01*
X300103Y197983D01*
X300100Y197531D01*
X297031Y200600D01*
X297483Y200603D01*
X298292Y200656D01*
X298649Y200706D01*
X298974Y200771D01*
X299267Y200852D01*
X299529Y200949D01*
X299760Y201061D01*
X299958Y201189D01*
X300125Y201332D01*
X300832Y200625D01*
D02*
G37*
G36*
X317495Y194049D02*
X317407Y194427D01*
X318545Y194813D01*
X318536Y194800D01*
X318527Y194773D01*
X318520Y194732D01*
X318513Y194677D01*
X318500Y194427D01*
X318495Y194049D01*
X317495D01*
D02*
G37*
D10*
X64500Y110286D02*
X67786Y107000D01*
X64500Y110286D02*
Y135000D01*
X67786Y107000D02*
X105500D01*
X52500Y147000D02*
X64500Y135000D01*
X136000Y137500D02*
X137000D01*
X105500Y107000D02*
X136000Y137500D01*
X60935Y107016D02*
Y128565D01*
X63491Y104460D02*
X113960D01*
X60935Y107016D02*
X63491Y104460D01*
X52500Y137000D02*
X60935Y128565D01*
X57553Y105148D02*
X60797Y101904D01*
X121404D01*
X57553Y105148D02*
Y121947D01*
X113960Y104460D02*
X147000Y137500D01*
X121404Y101904D02*
X157000Y137500D01*
X129056Y99556D02*
X167000Y137500D01*
X37274Y109226D02*
X46944Y99556D01*
X129056D01*
X136500Y97000D02*
X177000Y137500D01*
X42586Y97000D02*
X136500D01*
X34323Y105263D02*
X42586Y97000D01*
X52500Y127000D02*
X57553Y121947D01*
X144145Y94645D02*
X187000Y137500D01*
X31679Y102822D02*
X39855Y94645D01*
X144145D01*
X37274Y121774D02*
X42500Y127000D01*
X37274Y109226D02*
Y121774D01*
X34323Y128823D02*
X42500Y137000D01*
X34323Y105263D02*
Y128823D01*
X31679Y136179D02*
X42500Y147000D01*
X31679Y102822D02*
Y136179D01*
X73000Y114000D02*
X102500Y143500D01*
X191000D01*
X197000Y137500D01*
X86500Y137500D02*
X97500Y148500D01*
X86500Y137500D02*
Y137500D01*
X97500Y148500D02*
X196500D01*
X73000Y124000D02*
X86500Y137500D01*
X207000D02*
Y138000D01*
X196500Y148500D02*
X207000Y138000D01*
X73000Y144000D02*
X83892Y154892D01*
X200108D02*
X217000Y138000D01*
X83892Y154892D02*
X200108D01*
X73000Y154000D02*
X80367Y161367D01*
X203133D02*
X227000Y137500D01*
X80367Y161367D02*
X203133D01*
X217000Y137500D02*
Y138000D01*
X70500Y185000D02*
X78517Y176983D01*
X256483D01*
X277000Y197500D01*
X187172Y187673D02*
X197000Y197500D01*
X187172Y181410D02*
Y187673D01*
X228500Y167000D02*
X231950Y163550D01*
Y99050D02*
Y163550D01*
X76500Y173000D02*
X262500D01*
X64500Y185000D02*
X76500Y173000D01*
X262500D02*
X287000Y197500D01*
X231950Y99050D02*
X299500Y31500D01*
X237000Y192000D02*
Y197500D01*
X226500Y181500D02*
X237000Y192000D01*
X351776Y111956D02*
Y164482D01*
Y111956D02*
X351866Y111866D01*
X347988Y88868D02*
Y164057D01*
X362454Y74402D02*
X366988D01*
X347988Y88868D02*
X362454Y74402D01*
X378000Y63000D02*
Y63379D01*
X377300Y64079D02*
X378000Y63379D01*
X377300Y64079D02*
Y64089D01*
X366988Y74402D02*
X377300Y64089D01*
X344886Y87614D02*
Y161595D01*
X363000Y63000D02*
Y69500D01*
X344886Y87614D02*
X363000Y69500D01*
X333000Y183258D02*
X351776Y164482D01*
X317995Y194049D02*
X347988Y164057D01*
X309976Y196505D02*
X344886Y161595D01*
X307000Y197500D02*
X307995Y196505D01*
X309976D01*
X358500Y131500D02*
Y166404D01*
X339000Y185904D02*
Y200792D01*
Y185904D02*
X358500Y166404D01*
X333000Y183258D02*
Y199500D01*
X317000Y197500D02*
X317995Y196505D01*
Y194049D02*
Y196505D01*
X355000Y129379D02*
Y166000D01*
X363000Y112000D02*
Y121379D01*
X355000Y129379D02*
X363000Y121379D01*
X358500Y131500D02*
X378000Y112000D01*
X336143Y184857D02*
X355000Y166000D01*
X329000Y207000D02*
X336143Y199857D01*
Y184857D02*
Y199857D01*
X257000Y197500D02*
X269290Y209790D01*
X330002D02*
X339000Y200792D01*
X269290Y209790D02*
X330002D01*
X303500Y204000D02*
X328500D01*
X333000Y199500D01*
X297000Y197500D02*
X303500Y204000D01*
X297000Y197500D02*
X297000D01*
X276500Y207000D02*
X329000D01*
X267000Y197500D02*
X276500Y207000D01*
X252000Y90466D02*
Y149500D01*
X94234Y182493D02*
X115241Y203500D01*
X82500Y184500D02*
X84507Y182493D01*
X94234D01*
X82500Y184500D02*
X82500D01*
X234500Y210000D02*
X247000Y197500D01*
X94000Y209500D02*
X94268Y209768D01*
X95054D01*
X95286Y210000D01*
X234500D01*
X201000Y203500D02*
X207000Y197500D01*
X115241Y203500D02*
X201000D01*
X277000Y83918D02*
Y137500D01*
X329000Y31500D02*
Y31879D01*
X277000Y83918D02*
X328300Y32618D01*
Y32579D02*
X329000Y31879D01*
X328300Y32579D02*
Y32618D01*
X252000Y90466D02*
X311205Y31262D01*
X267000Y87000D02*
Y137500D01*
Y87000D02*
X323000Y31000D01*
X287000Y197500D02*
Y197500D01*
D33*
X382450Y159500D02*
G03*
X382450Y159500I-4950J0D01*
G01*
X360850Y166404D02*
G03*
X360160Y168067I-2350J0D01*
G01*
X360850Y166404D02*
G03*
X360162Y168065I-2350J0D01*
G01*
X341350Y200792D02*
G03*
X340662Y202454I-2350J0D01*
G01*
X331664Y211452D02*
G03*
X330002Y212140I-1662J-1662D01*
G01*
X331665Y211450D02*
G03*
X330002Y212140I-1664J-1660D01*
G01*
X341350Y200792D02*
G03*
X340660Y202456I-2350J0D01*
G01*
X365823Y196850D02*
G03*
X365823Y196850I-11492J0D01*
G01*
X382450Y149500D02*
G03*
X382450Y149500I-4950J0D01*
G01*
X382250Y139500D02*
G03*
X382250Y139500I-4750J0D01*
G01*
X331950Y137500D02*
G03*
X331950Y137500I-4950J0D01*
G01*
X291950Y197500D02*
G03*
X282053Y197671I-4950J0D01*
G01*
X269290Y212140D02*
G03*
X267628Y211452I0J-2350D01*
G01*
X281950Y197500D02*
G03*
X274714Y201891I-4950J0D01*
G01*
X269290Y212140D02*
G03*
X267627Y211450I0J-2350D01*
G01*
X281391Y195214D02*
G03*
X281950Y197500I-4390J2286D01*
G01*
X302072Y197962D02*
G03*
X309764Y193394I4928J-462D01*
G01*
X296829Y202447D02*
G03*
X301947Y197329I171J-4947D01*
G01*
X287171Y192553D02*
G03*
X291950Y197500I-171J4947D01*
G01*
X262610Y199786D02*
G03*
X269286Y193110I4390J-2286D01*
G01*
X256829Y202447D02*
G03*
X261947Y197329I171J-4947D01*
G01*
X262500Y170650D02*
G03*
X264161Y171338I0J2350D01*
G01*
X262500Y170650D02*
G03*
X264163Y171340I0J2350D01*
G01*
X251950Y197500D02*
G03*
X247171Y202447I-4950J0D01*
G01*
X236164Y211660D02*
G03*
X234500Y212350I-1664J-1660D01*
G01*
X236162Y211662D02*
G03*
X234500Y212350I-1662J-1662D01*
G01*
X241950Y197500D02*
G03*
X241390Y199786I-4950J0D01*
G01*
X240619Y194123D02*
G03*
X241950Y197500I-3619J3377D01*
G01*
X242053Y197329D02*
G03*
X251950Y197500I4947J171D01*
G01*
X238660Y190337D02*
G03*
X239350Y192000I-1660J1664D01*
G01*
X244458Y164755D02*
G03*
X244550Y165500I-2958J745D01*
G01*
X255050Y149500D02*
G03*
X249626Y147585I-3050J0D01*
G01*
X244550Y165500D02*
G03*
X239250Y163441I-3050J0D01*
G01*
X238662Y190338D02*
G03*
X239350Y192000I-1662J1662D01*
G01*
X321750Y137500D02*
G03*
X321750Y137500I-4750J0D01*
G01*
X311950D02*
G03*
X311950Y137500I-4950J0D01*
G01*
X301950D02*
G03*
X301950Y137500I-4950J0D01*
G01*
X291950D02*
G03*
X291950Y137500I-4950J0D01*
G01*
X280619Y134123D02*
G03*
X281950Y137500I-3619J3377D01*
G01*
D02*
G03*
X273381Y134123I-4950J0D01*
G01*
X270619D02*
G03*
X271950Y137500I-3619J3377D01*
G01*
X254374Y147585D02*
G03*
X255050Y149500I-2374J1915D01*
G01*
X249650Y141681D02*
G03*
X244450Y141743I-2650J-4181D01*
G01*
X239250Y141909D02*
G03*
X234300Y141649I-2250J-4409D01*
G01*
X271950Y137500D02*
G03*
X263381Y134123I-4950J0D01*
G01*
X261950Y137500D02*
G03*
X254350Y141681I-4950J0D01*
G01*
Y133319D02*
G03*
X261950Y137500I2650J4181D01*
G01*
X381050Y112000D02*
G03*
X378324Y115033I-3050J0D01*
G01*
X366050Y112000D02*
G03*
X365374Y113915I-3050J0D01*
G01*
X354916Y111866D02*
G03*
X354151Y113886I-3050J0D01*
G01*
X374967Y111676D02*
G03*
X381050Y112000I3033J324D01*
G01*
X360626Y113915D02*
G03*
X366050Y112000I2374J-1915D01*
G01*
X357204Y82975D02*
G03*
X360409Y87217I-1204J4241D01*
G01*
X357204Y82975D02*
G03*
X360409Y87217I-1204J4241D01*
G01*
X368649Y76063D02*
G03*
X366988Y76752I-1662J-1662D01*
G01*
X368651Y76061D02*
G03*
X366988Y76752I-1664J-1660D01*
G01*
X350338Y109227D02*
G03*
X354916Y111866I1529J2639D01*
G01*
X360409Y87217D02*
G03*
X351759Y88421I-4409J0D01*
G01*
X360409Y87217D02*
G03*
X351759Y88421I-4409J0D01*
G01*
X342536Y87614D02*
G03*
X343226Y85951I2350J0D01*
G01*
X342536Y87614D02*
G03*
X343224Y85953I2350J0D01*
G01*
X381050Y63000D02*
G03*
X378758Y65954I-3050J0D01*
G01*
X365350Y69500D02*
G03*
X364662Y71162I-2350J0D01*
G01*
X365350Y69500D02*
G03*
X364660Y71163I-2350J0D01*
G01*
X366050Y63000D02*
G03*
X365374Y64915I-3050J0D01*
G01*
X374952Y63114D02*
G03*
X381050Y63000I3048J-114D01*
G01*
X360626Y64915D02*
G03*
X366050Y63000I2374J-1915D01*
G01*
X355320Y73856D02*
G03*
X360356Y68820I680J-4356D01*
G01*
X355320Y73856D02*
G03*
X360356Y68820I680J-4356D01*
G01*
X365823Y19685D02*
G03*
X365823Y19685I-11492J0D01*
G01*
X326750Y111000D02*
G03*
X326750Y111000I-4750J0D01*
G01*
X341850Y97000D02*
G03*
X334637Y98875I-3850J0D01*
G01*
X316950Y111000D02*
G03*
X316950Y111000I-4950J0D01*
G01*
X306950D02*
G03*
X306950Y111000I-4950J0D01*
G01*
X296950D02*
G03*
X296950Y111000I-4950J0D01*
G01*
X274650Y115181D02*
G03*
X269350Y115181I-2650J-4181D01*
G01*
X286950Y111000D02*
G03*
X279350Y115181I-4950J0D01*
G01*
Y106819D02*
G03*
X286950Y111000I2650J4181D01*
G01*
X264650Y115181D02*
G03*
X264650Y106819I-2650J-4181D01*
G01*
X338409Y93172D02*
G03*
X341850Y97000I-410J3828D01*
G01*
X318973Y83210D02*
G03*
X323710Y78473I1027J-3711D01*
G01*
X326041Y30762D02*
G03*
X332050Y31500I2959J738D01*
G01*
D02*
G03*
X329797Y34444I-3050J0D01*
G01*
X314254Y31262D02*
G03*
X311529Y34294I-3050J0D01*
G01*
X319967Y30676D02*
G03*
X326041Y30762I3033J324D01*
G01*
X308273Y30418D02*
G03*
X314254Y31262I2931J843D01*
G01*
X302432Y30593D02*
G03*
X308273Y30418I2947J786D01*
G01*
X296467Y31176D02*
G03*
X302417Y30608I3033J324D01*
G01*
X264650Y87000D02*
G03*
X265340Y85337I2350J0D01*
G01*
X264650Y87000D02*
G03*
X265338Y85338I2350J0D01*
G01*
X153656Y201150D02*
G03*
X152053Y197678I3344J-3650D01*
G01*
X151750Y197500D02*
G03*
X150040Y201150I-4750J0D01*
G01*
X143960D02*
G03*
X149028Y193205I3040J-3650D01*
G01*
X151296Y195473D02*
G03*
X151750Y197500I-4296J2028D01*
G01*
X133960Y201150D02*
G03*
X141750Y197500I3040J-3650D01*
G01*
D02*
G03*
X140040Y201150I-4750J0D01*
G01*
X234300Y163550D02*
G03*
X233610Y165214I-2350J0D01*
G01*
X234300Y163550D02*
G03*
X233612Y165212I-2350J0D01*
G01*
X228647Y179333D02*
G03*
X229533Y181176I-2147J2167D01*
G01*
X231533Y167324D02*
G03*
X228176Y163967I-3033J-324D01*
G01*
X204795Y163029D02*
G03*
X203133Y163717I-1662J-1662D01*
G01*
X204796Y163027D02*
G03*
X203133Y163717I-1664J-1660D01*
G01*
X95104Y212343D02*
G03*
X96425Y207650I-1104J-2843D01*
G01*
X89721Y187832D02*
G03*
X85221Y185878I-1528J-2640D01*
G01*
X198163Y150160D02*
G03*
X196500Y150850I-1664J-1660D01*
G01*
X198162Y150162D02*
G03*
X196500Y150850I-1662J-1662D01*
G01*
X229600Y141712D02*
G03*
X227171Y142447I-2600J-4212D01*
G01*
X212065Y137890D02*
G03*
X221950Y137500I4935J-390D01*
G01*
D02*
G03*
X221390Y139786I-4950J0D01*
G01*
X222053Y137329D02*
G03*
X229600Y133288I4947J171D01*
G01*
X211950Y137500D02*
G03*
X207744Y142394I-4950J0D01*
G01*
X201950Y137500D02*
G03*
X197171Y142447I-4950J0D01*
G01*
X202065Y137890D02*
G03*
X211950Y137500I4935J-390D01*
G01*
X192664Y145160D02*
G03*
X191000Y145850I-1664J-1660D01*
G01*
X192662Y145162D02*
G03*
X191000Y145850I-1662J-1662D01*
G01*
X97500Y150850D02*
G03*
X95837Y150160I0J-2350D01*
G01*
X102500Y145850D02*
G03*
X100838Y145162I0J-2350D01*
G01*
X102500Y145850D02*
G03*
X100837Y145160I0J-2350D01*
G01*
X97500Y150850D02*
G03*
X95838Y150162I0J-2350D01*
G01*
X192053Y137329D02*
G03*
X201950Y137500I4947J171D01*
G01*
X191950D02*
G03*
X191390Y139786I-4950J0D01*
G01*
X187171Y132553D02*
G03*
X191950Y137500I-171J4947D01*
G01*
X85221Y185878D02*
G03*
X79458Y184274I-2721J-1378D01*
G01*
X79447Y184286D02*
G03*
X73837Y184987I-2947J-786D01*
G01*
X73533Y185324D02*
G03*
X67500Y185550I-3033J-324D01*
G01*
X80367Y163717D02*
G03*
X78705Y163029I0J-2350D01*
G01*
X80367Y163717D02*
G03*
X78704Y163027I0J-2350D01*
G01*
X74836Y171340D02*
G03*
X76500Y170650I1664J1660D01*
G01*
X74838Y171338D02*
G03*
X76500Y170650I1662J1662D01*
G01*
X67500Y185550D02*
G03*
X64176Y181967I-3000J-550D01*
G01*
X50863Y196878D02*
G03*
X50863Y196878I-11492J0D01*
G01*
X77950Y164000D02*
G03*
X75286Y159610I-4950J0D01*
G01*
X77390Y161714D02*
G03*
X77950Y164000I-4390J2286D01*
G01*
X72829Y158947D02*
G03*
X75286Y149610I171J-4947D01*
G01*
X57891Y147163D02*
G03*
X47500Y149022I-5391J-163D01*
G01*
D02*
G03*
X37109Y147163I-5000J-2022D01*
G01*
X29025Y155344D02*
G03*
X29025Y155344I-9524J0D01*
G01*
X72829Y148947D02*
G03*
X77947Y143829I171J-4947D01*
G01*
X66850Y135000D02*
G03*
X66160Y136663I-2350J0D01*
G01*
X66850Y135000D02*
G03*
X66162Y136662I-2350J0D01*
G01*
X76708Y131032D02*
G03*
X77750Y134000I-3708J2968D01*
G01*
D02*
G03*
X75968Y130292I-4750J0D01*
G01*
X77390Y121714D02*
G03*
X77947Y123829I-4390J2286D01*
G01*
X30017Y137840D02*
G03*
X29329Y136179I1662J-1662D01*
G01*
X30018Y137842D02*
G03*
X29329Y136179I1660J-1664D01*
G01*
X29225Y135659D02*
G03*
X29225Y135659I-9724J0D01*
G01*
X219598Y110500D02*
G03*
X209500Y111495I-5098J0D01*
G01*
D02*
G03*
X199500Y111495I-5000J-995D01*
G01*
D02*
G03*
X193085Y105602I-5000J-995D01*
G01*
X200600Y105880D02*
G03*
X199838Y107719I-2600J0D01*
G01*
X200600Y105880D02*
G03*
X199838Y107719I-2600J0D01*
G01*
X229600Y99050D02*
G03*
X230288Y97388I2350J0D01*
G01*
X229600Y99050D02*
G03*
X230290Y97387I2350J0D01*
G01*
X209500Y109505D02*
G03*
X219598Y110500I5000J995D01*
G01*
X199500Y109505D02*
G03*
X209500Y109505I5000J995D01*
G01*
X203550Y92500D02*
G03*
X201288Y95446I-3050J0D01*
G01*
X195400Y95000D02*
G03*
X196161Y93161I2600J0D01*
G01*
X195400Y95000D02*
G03*
X196161Y93161I2600J0D01*
G01*
X197553Y91714D02*
G03*
X203550Y92500I2947J786D01*
G01*
X189398Y110490D02*
G03*
X189398Y110490I-4898J0D01*
G01*
X144145Y92295D02*
G03*
X145808Y92985I0J2350D01*
G01*
X144145Y92295D02*
G03*
X145807Y92983I0J2350D01*
G01*
X134789Y88492D02*
G03*
X132815Y92295I-4650J0D01*
G01*
X121652D02*
G03*
X124328Y83842I2676J-3803D01*
G01*
X130139D02*
G03*
X134789Y88492I0J4650D01*
G01*
X130140Y73842D02*
G03*
X134790Y78492I0J4650D01*
G01*
D02*
G03*
X130140Y83142I-4650J0D01*
G01*
X124328D02*
G03*
X124328Y73842I0J-4650D01*
G01*
X134990Y45499D02*
G03*
X130140Y50349I-4850J0D01*
G01*
Y40649D02*
G03*
X134990Y45499I0J4850D01*
G01*
Y35500D02*
G03*
X130140Y40350I-4850J0D01*
G01*
X124328D02*
G03*
X124328Y30650I0J-4850D01*
G01*
Y50349D02*
G03*
X124328Y40649I0J-4850D01*
G01*
X130140Y30650D02*
G03*
X134990Y35500I0J4850D01*
G01*
X72829Y128947D02*
G03*
X75286Y119610I171J-4947D01*
G01*
X47613Y115282D02*
G03*
X55203Y112570I4897J1728D01*
G01*
X39624Y112437D02*
G03*
X47613Y115282I2876J4563D01*
G01*
X55203Y105148D02*
G03*
X55893Y103484I2350J0D01*
G01*
X55203Y105148D02*
G03*
X55892Y103486I2350J0D01*
G01*
X70144Y88492D02*
G03*
X68169Y92295I-4650J0D01*
G01*
X57007D02*
G03*
X59683Y83842I2676J-3803D01*
G01*
X65494D02*
G03*
X70144Y88492I0J4650D01*
G01*
X29329Y102822D02*
G03*
X30018Y101158I2350J0D01*
G01*
X29329Y102822D02*
G03*
X30017Y101160I2350J0D01*
G01*
X38193Y92983D02*
G03*
X39855Y92295I1662J1662D01*
G01*
X38192Y92985D02*
G03*
X39855Y92295I1664J1660D01*
G01*
X26481Y103835D02*
G03*
X22075Y108240I-4406J0D01*
G01*
Y99429D02*
G03*
X26481Y103835I0J4406D01*
G01*
X25350Y92811D02*
G03*
X25350Y92811I-4850J0D01*
G01*
Y81000D02*
G03*
X25350Y81000I-4850J0D01*
G01*
X18925Y108240D02*
G03*
X18925Y99429I0J-4406D01*
G01*
X70144Y78492D02*
G03*
X65494Y83142I-4650J0D01*
G01*
Y73842D02*
G03*
X70144Y78492I0J4650D01*
G01*
X59683Y83142D02*
G03*
X59683Y73842I0J-4650D01*
G01*
X70256Y45500D02*
G03*
X65405Y50350I-4850J0D01*
G01*
X25350Y69189D02*
G03*
X25350Y69189I-4850J0D01*
G01*
X26481Y58165D02*
G03*
X22075Y62571I-4406J0D01*
G01*
Y53759D02*
G03*
X26481Y58165I0J4406D01*
G01*
X18925Y62571D02*
G03*
X18925Y53759I0J-4406D01*
G01*
X65494Y30650D02*
G03*
X70344Y35500I0J4850D01*
G01*
D02*
G03*
X65494Y40350I-4850J0D01*
G01*
X65405Y40650D02*
G03*
X70256Y45500I0J4850D01*
G01*
X59595Y50350D02*
G03*
X59595Y40650I0J-4850D01*
G01*
X59683Y40350D02*
G03*
X59683Y30650I0J-4850D01*
G01*
X50863Y19713D02*
G03*
X50863Y19713I-11492J0D01*
G01*
X364080Y202935D02*
X394000D01*
X364536Y202135D02*
X394000D01*
X363532Y203735D02*
X394000D01*
X365216Y200535D02*
X394000D01*
X364912Y201335D02*
X394000D01*
X359842Y206935D02*
X394000D01*
X361103Y206135D02*
X394000D01*
X358018Y207735D02*
X394000D01*
X362876Y204535D02*
X394000D01*
X362082Y205335D02*
X394000D01*
X365813Y197335D02*
X394000D01*
X365819Y196535D02*
X394000D01*
X365751Y198135D02*
X394000D01*
X365663Y194935D02*
X394000D01*
X365769Y195735D02*
X394000D01*
X365633Y198935D02*
X394000D01*
X365455Y199735D02*
X394000D01*
X358486Y186135D02*
X394000D01*
X361330Y187735D02*
X394000D01*
X365498Y194135D02*
X394000D01*
X365272Y193335D02*
X394000D01*
X393000Y217000D02*
X394000Y216000D01*
X364622Y191735D02*
X394000D01*
X364982Y192535D02*
X394000D01*
X363657Y190135D02*
X394000D01*
X363026Y189335D02*
X394000D01*
X364184Y190935D02*
X394000D01*
X360142Y186935D02*
X394000D01*
X362264Y188535D02*
X394000D01*
X346892Y181335D02*
X394000D01*
X348492Y179735D02*
X394000D01*
X347692Y180535D02*
X394000D01*
X354092Y174135D02*
X394000D01*
X354892Y173335D02*
X394000D01*
X353292Y174935D02*
X394000D01*
X356492Y171735D02*
X394000D01*
X355692Y172535D02*
X394000D01*
X350092Y178135D02*
X394000D01*
X350892Y177335D02*
X394000D01*
X349292Y178935D02*
X394000D01*
X352492Y175735D02*
X394000D01*
X351692Y176535D02*
X394000D01*
X360789Y166935D02*
X394000D01*
X360850Y166135D02*
X394000D01*
X360436Y167735D02*
X394000D01*
X382097Y161335D02*
X394000D01*
X360850Y165335D02*
X394000D01*
X358092Y170135D02*
X394000D01*
X357292Y170935D02*
X394000D01*
X359692Y168535D02*
X394000D01*
X358892Y169335D02*
X394000D01*
X380062Y163735D02*
X394000D01*
X381064Y162935D02*
X394000D01*
X360850Y164535D02*
X394000D01*
X360850Y132473D02*
Y166404D01*
Y163735D02*
X374938D01*
X360850Y162935D02*
X373936D01*
X381690Y162135D02*
X394000D01*
X382341Y160535D02*
X394000D01*
X360850Y161335D02*
X372903D01*
X382418Y158935D02*
X394000D01*
X382444Y159735D02*
X394000D01*
X360850Y162135D02*
X373310D01*
X360850Y160535D02*
X372659D01*
X360850Y158935D02*
X372582D01*
X360850Y159735D02*
X372556D01*
X335380Y207735D02*
X350644D01*
X336180Y206935D02*
X348820D01*
X336980Y206135D02*
X347558D01*
X337780Y205335D02*
X346580D01*
X338580Y204535D02*
X345786D01*
X332180Y210935D02*
X394000D01*
X332980Y210135D02*
X394000D01*
X331321Y211735D02*
X394000D01*
X334580Y208535D02*
X394000D01*
X333780Y209335D02*
X394000D01*
X341350Y190135D02*
X345004D01*
X341350Y188535D02*
X346397D01*
X341350Y189335D02*
X345636D01*
X339380Y203735D02*
X345129D01*
X340180Y202935D02*
X344581D01*
X341350Y190935D02*
X344477D01*
X340928Y202135D02*
X344126D01*
X341286Y201335D02*
X343749D01*
X341350Y200535D02*
X343445D01*
X341350Y199735D02*
X343206D01*
X341350Y198935D02*
X343029D01*
X269290Y212140D02*
X330002D01*
X331665Y211450D02*
X340660Y202456D01*
X341350Y194135D02*
X343163D01*
X341350Y193335D02*
X343389D01*
X341350Y194935D02*
X342999D01*
X341350Y191735D02*
X344039D01*
X341350Y192535D02*
X343679D01*
X341350Y198135D02*
X342910D01*
X341350Y197335D02*
X342848D01*
X341350Y195735D02*
X342892D01*
X341350Y196535D02*
X342843D01*
X342892Y185335D02*
X394000D01*
X342092Y186135D02*
X350175D01*
X344492Y183735D02*
X394000D01*
X343692Y184535D02*
X394000D01*
X341350Y187735D02*
X347331D01*
X341350Y186935D02*
X348519D01*
X341350Y186877D02*
Y200792D01*
Y186877D02*
X360160Y168067D01*
X309764Y193394D02*
X342536Y160622D01*
X345292Y182935D02*
X394000D01*
X346092Y182135D02*
X394000D01*
X244450Y162935D02*
X340222D01*
X244450Y161335D02*
X341822D01*
X244450Y162135D02*
X341022D01*
X244450Y159735D02*
X342536D01*
X244450Y160535D02*
X342536D01*
X244450Y158135D02*
X342536D01*
X244450Y158935D02*
X342536D01*
X270959Y178135D02*
X325022D01*
X270159Y177335D02*
X325822D01*
X271759Y178935D02*
X324222D01*
X268559Y175735D02*
X327422D01*
X269359Y176535D02*
X326622D01*
X266959Y174135D02*
X329022D01*
X267759Y174935D02*
X328222D01*
X265359Y172535D02*
X330622D01*
X266159Y173335D02*
X329822D01*
X263622Y170935D02*
X332222D01*
X244483Y166135D02*
X337022D01*
X264559Y171735D02*
X331422D01*
X244474Y164535D02*
X338622D01*
X244546Y165335D02*
X337822D01*
X243575Y167735D02*
X335422D01*
X241798Y168535D02*
X334622D01*
X244450Y163735D02*
X339422D01*
X244191Y166935D02*
X336222D01*
X381952Y157335D02*
X394000D01*
X381464Y156535D02*
X394000D01*
X382258Y158135D02*
X394000D01*
X382237Y150935D02*
X394000D01*
X381916Y151735D02*
X394000D01*
X379415Y154935D02*
X394000D01*
X379237Y154135D02*
X394000D01*
X380714Y155735D02*
X394000D01*
X381410Y152535D02*
X394000D01*
X380629Y153335D02*
X394000D01*
X382447Y149335D02*
X394000D01*
X382355Y148535D02*
X394000D01*
X382409Y150135D02*
X394000D01*
X381881Y141335D02*
X394000D01*
X382125Y147735D02*
X394000D01*
X381131Y146135D02*
X394000D01*
X381734Y146935D02*
X394000D01*
X381452Y142135D02*
X394000D01*
X380780Y142935D02*
X394000D01*
X360850Y156535D02*
X373536D01*
X360850Y154935D02*
X375585D01*
X360850Y158135D02*
X372742D01*
X380176Y145335D02*
X394000D01*
X360850Y146935D02*
X373266D01*
X360850Y146135D02*
X373869D01*
X360850Y157335D02*
X373048D01*
X360850Y144535D02*
X394000D01*
X360850Y145335D02*
X374824D01*
X382136Y140535D02*
X394000D01*
X382244Y139735D02*
X394000D01*
X379650Y143735D02*
X394000D01*
X382216Y138935D02*
X394000D01*
X360850Y143735D02*
X375350D01*
X360850Y142935D02*
X374220D01*
X382450Y133335D02*
X394000D01*
X382450Y132535D02*
X394000D01*
X382450Y134135D02*
X394000D01*
X382450Y130935D02*
X394000D01*
X382450Y131735D02*
X394000D01*
X381728Y137335D02*
X394000D01*
X381211Y136535D02*
X394000D01*
X382050Y138135D02*
X394000D01*
X378814Y134935D02*
X394000D01*
X380397Y135735D02*
X394000D01*
X382450Y129335D02*
X394000D01*
X382450Y128535D02*
X394000D01*
X382450Y130135D02*
X394000D01*
X382450Y126135D02*
X394000D01*
X382450Y127735D02*
X394000D01*
X368788Y124535D02*
X394000D01*
X382450Y125335D02*
X394000D01*
X370388Y122935D02*
X394000D01*
X369588Y123735D02*
X394000D01*
X372550Y134450D02*
X382450D01*
Y124550D02*
Y134450D01*
X372550Y124550D02*
Y134450D01*
X360850Y134935D02*
X376186D01*
X360850Y132535D02*
X372550D01*
X362388Y130935D02*
X372550D01*
X361588Y131735D02*
X372550D01*
X366388Y126935D02*
X372550D01*
X382450D02*
X394000D01*
X367188Y126135D02*
X372550D01*
Y124550D02*
X382450D01*
X367988Y125335D02*
X372550D01*
X363988Y129335D02*
X372550D01*
X363188Y130135D02*
X372550D01*
X365588Y127735D02*
X372550D01*
X364788Y128535D02*
X372550D01*
X360850Y154135D02*
X375764D01*
X360850Y153335D02*
X374371D01*
X360850Y155735D02*
X374286D01*
X360850Y152535D02*
X373590D01*
X360850Y151735D02*
X373083D01*
X244450Y153335D02*
X342536D01*
X252298Y152535D02*
X342536D01*
X244450Y157335D02*
X342536D01*
X360850Y150935D02*
X372763D01*
X254075Y151735D02*
X342536D01*
X360850Y150135D02*
X372591D01*
X360850Y148535D02*
X372645D01*
X360850Y149335D02*
X372553D01*
X360850Y141335D02*
X373119D01*
X360850Y147735D02*
X372875D01*
X360850Y142135D02*
X373548D01*
X328736D02*
X342536D01*
X360850Y140535D02*
X372864D01*
X330129Y141335D02*
X342536D01*
X254983Y150135D02*
X342536D01*
X255046Y149335D02*
X342536D01*
X254691Y150935D02*
X342536D01*
X254488Y147735D02*
X342536D01*
X254893Y148535D02*
X342536D01*
X244450Y155735D02*
X342536D01*
X244450Y156535D02*
X342536D01*
X244450Y154135D02*
X342536D01*
X244450Y154935D02*
X342536D01*
X254350Y143735D02*
X342536D01*
X254350Y142935D02*
X342536D01*
X318037Y142135D02*
X325264D01*
X330910Y140535D02*
X342536D01*
X319802Y141335D02*
X323871D01*
X254350Y146135D02*
X342536D01*
X254350Y146935D02*
X342536D01*
X254350Y144535D02*
X342536D01*
X254350Y145335D02*
X342536D01*
X360850Y138935D02*
X372784D01*
X360850Y138135D02*
X372950D01*
X360850Y139735D02*
X372756D01*
X360850Y135735D02*
X374603D01*
X360850Y137335D02*
X373272D01*
X331947D02*
X342536D01*
X360850Y136535D02*
X373789D01*
X331909Y138135D02*
X342536D01*
X331625Y135735D02*
X342536D01*
X331855Y136535D02*
X342536D01*
X360850Y134135D02*
X372550D01*
X360850Y133335D02*
X372550D01*
X354126Y126135D02*
X354921D01*
X354126Y122935D02*
X358120D01*
X354126Y125335D02*
X355720D01*
X330631Y134135D02*
X342536D01*
X331234Y134935D02*
X342536D01*
X354126Y123735D02*
X357320D01*
X354126Y124535D02*
X356521D01*
X331737Y138935D02*
X342536D01*
X329676Y133335D02*
X342536D01*
X331417Y139735D02*
X342536D01*
X319285Y133335D02*
X324324D01*
X279350Y131735D02*
X342536D01*
X279391Y132535D02*
X342536D01*
X279350Y130135D02*
X342536D01*
X279350Y130935D02*
X342536D01*
X279350Y125335D02*
X342536D01*
X279350Y124535D02*
X342536D01*
X279350Y126135D02*
X342536D01*
X279350Y122935D02*
X342536D01*
X279350Y123735D02*
X342536D01*
X279350Y128535D02*
X342536D01*
X279350Y129335D02*
X342536D01*
X279350Y126935D02*
X342536D01*
X279350Y127735D02*
X342536D01*
X298996Y202820D02*
X300826Y204650D01*
X297415Y202489D02*
X298099Y202534D01*
X297018Y202486D02*
X297415Y202489D01*
X288737Y202135D02*
X295263D01*
X277473Y204650D02*
X300826D01*
X277359Y204535D02*
X300712D01*
X276559Y203735D02*
X299912D01*
X275759Y202935D02*
X299112D01*
X278737Y202135D02*
X285263D01*
X291417Y199735D02*
X292583D01*
X301986Y197518D02*
X301989Y197915D01*
X291738Y198935D02*
X292263D01*
X301625Y195735D02*
X302375D01*
X291625D02*
X292375D01*
X290130Y201335D02*
X293870D01*
X280130D02*
X283871D01*
X290910Y200535D02*
X293090D01*
X280910D02*
X283090D01*
X274714Y201891D02*
X277473Y204650D01*
X274959Y202135D02*
X275263D01*
X281417Y199735D02*
X282583D01*
X258996Y202820D02*
X267627Y211450D01*
X257415Y202489D02*
X258099Y202534D01*
X262320Y199496D02*
X262610Y199786D01*
X257018Y202486D02*
X257415Y202489D01*
X281737Y198935D02*
X282263D01*
X282011Y197086D02*
X282014Y197482D01*
X281966Y196401D02*
X282011Y197086D01*
X281391Y195214D02*
X281681Y195504D01*
X261989Y197915D02*
X262034Y198600D01*
X251737Y198935D02*
X252263D01*
X261625Y195735D02*
X262375D01*
X261986Y197518D02*
X261989Y197915D01*
X287085Y192535D02*
X310622D01*
X299675Y193335D02*
X304325D01*
X283759Y190935D02*
X312222D01*
X284559Y191735D02*
X311422D01*
X282159Y189335D02*
X313822D01*
X281359Y188535D02*
X314622D01*
X282959Y190135D02*
X313022D01*
X279759Y186935D02*
X316222D01*
X280559Y187735D02*
X315422D01*
X278159Y185335D02*
X317822D01*
X277359Y184535D02*
X318622D01*
X278959Y186135D02*
X317022D01*
X275759Y182935D02*
X320222D01*
X276559Y183735D02*
X319422D01*
X274159Y181335D02*
X321822D01*
X274959Y182135D02*
X321022D01*
X272559Y179735D02*
X323422D01*
X273359Y180535D02*
X322622D01*
X301234Y194935D02*
X302766D01*
X300630Y194135D02*
X303370D01*
X291234Y194935D02*
X292766D01*
X290631Y194135D02*
X293370D01*
X261234Y194935D02*
X262766D01*
X289675Y193335D02*
X294325D01*
X286585Y192511D02*
X286982Y192514D01*
X285901Y192467D02*
X286585Y192511D01*
X264163Y171340D02*
X285004Y192181D01*
X259675Y193335D02*
X264325D01*
X260630Y194135D02*
X263370D01*
X255510Y179333D02*
X269286Y193110D01*
X240088Y207735D02*
X263912D01*
X240888Y206935D02*
X263112D01*
X241688Y206135D02*
X262312D01*
X242488Y205335D02*
X261512D01*
X243288Y204535D02*
X260712D01*
X236085Y211735D02*
X267971D01*
X236888Y210935D02*
X267112D01*
X237688Y210135D02*
X266312D01*
X238488Y209335D02*
X265512D01*
X239288Y208535D02*
X264712D01*
X250130Y201335D02*
X253871D01*
X250910Y200535D02*
X253090D01*
X251417Y199735D02*
X252584D01*
X250630Y194135D02*
X253370D01*
X251234Y194935D02*
X252766D01*
X244088Y203735D02*
X259912D01*
X244888Y202935D02*
X259112D01*
X248737Y202135D02*
X255263D01*
X249675Y193335D02*
X254325D01*
X245901Y202534D02*
X246585Y202489D01*
X246982Y202486D01*
X241390Y199786D02*
X241681Y199496D01*
X241967Y198600D02*
X242011Y197915D01*
X236164Y211660D02*
X245004Y202820D01*
X241625Y195735D02*
X242375D01*
X251625D02*
X252375D01*
X242011Y197915D02*
X242014Y197518D01*
X240631Y194135D02*
X243370D01*
X241234Y194935D02*
X242766D01*
X240234Y193679D02*
X240513Y193962D01*
X239933Y193335D02*
X244325D01*
X239782Y193164D02*
X240234Y193679D01*
X239391Y192535D02*
X268712D01*
X239350Y192000D02*
Y192327D01*
X239335Y191735D02*
X267912D01*
X239095Y190935D02*
X267112D01*
X238459Y190135D02*
X266312D01*
X237659Y189335D02*
X265512D01*
X236859Y188535D02*
X264712D01*
X236059Y187735D02*
X263912D01*
X244450Y152535D02*
X251702D01*
X244458Y164755D02*
X244481Y164441D01*
X244450Y141743D02*
Y164134D01*
X235259Y186935D02*
X263112D01*
X234459Y186135D02*
X262312D01*
X244450Y164134D02*
Y164725D01*
X234300Y162935D02*
X239250D01*
X234300Y160535D02*
X239250D01*
Y141909D02*
Y163441D01*
X234300Y141649D02*
Y163550D01*
Y162135D02*
X239250D01*
X234293Y163735D02*
X239012D01*
X234300Y159735D02*
X239250D01*
X234300Y161335D02*
X239250D01*
X234300Y154935D02*
X239250D01*
X234300Y154135D02*
X239250D01*
X234300Y155735D02*
X239250D01*
X234300Y152535D02*
X239250D01*
X234300Y153335D02*
X239250D01*
X234300Y158135D02*
X239250D01*
X234300Y158935D02*
X239250D01*
X234300Y156535D02*
X239250D01*
X234300Y157335D02*
X239250D01*
X320654Y140535D02*
X323090D01*
X321191Y139735D02*
X322584D01*
X321528Y138935D02*
X322263D01*
X311737D02*
X312472D01*
X308736Y142135D02*
X315963D01*
X310129Y141335D02*
X314198D01*
X298737Y142135D02*
X305263D01*
X310910Y140535D02*
X313346D01*
X311417Y139735D02*
X312809D01*
X321707Y138135D02*
X322091D01*
X321747Y137335D02*
X322053D01*
X321651Y136535D02*
X322145D01*
X311909Y138135D02*
X312293D01*
X311947Y137335D02*
X312253D01*
X311625Y135735D02*
X312590D01*
X311855Y136535D02*
X312349D01*
X288737Y142135D02*
X295264D01*
X300129Y141335D02*
X303871D01*
X290129D02*
X293871D01*
X300910Y140535D02*
X303090D01*
X290910D02*
X293090D01*
X278736Y142135D02*
X285263D01*
X280129Y141335D02*
X283871D01*
X270129D02*
X273871D01*
X280910Y140535D02*
X283090D01*
X270910D02*
X273090D01*
X301416Y139735D02*
X302584D01*
X301737Y138935D02*
X302263D01*
X291417Y139735D02*
X292583D01*
X291737Y138935D02*
X292263D01*
X281737D02*
X282263D01*
X281417Y139735D02*
X282583D01*
X271416D02*
X272584D01*
X271625Y135735D02*
X272375D01*
X271737Y138935D02*
X272263D01*
X321410Y135735D02*
X322375D01*
X320998Y134935D02*
X322766D01*
X311234D02*
X313002D01*
X301625Y135735D02*
X302375D01*
X291625D02*
X292375D01*
X310631Y134135D02*
X313647D01*
X320353D02*
X323369D01*
X301234Y134935D02*
X302766D01*
X309676Y133335D02*
X314716D01*
X300631Y134135D02*
X303369D01*
X290631D02*
X293369D01*
X291234Y134935D02*
X292766D01*
X299676Y133335D02*
X304324D01*
X289676D02*
X294324D01*
X281234Y134935D02*
X282766D01*
X280631Y134135D02*
X283369D01*
X281625Y135735D02*
X282375D01*
X280234Y133679D02*
X280513Y133962D01*
X270631Y134135D02*
X273369D01*
X271234Y134935D02*
X272766D01*
X273487Y133962D02*
X273766Y133679D01*
X279933Y133335D02*
X284324D01*
X270234Y133679D02*
X270513Y133962D01*
X279782Y133163D02*
X280234Y133679D01*
X273766D02*
X274218Y133163D01*
X269933Y133335D02*
X274067D01*
X269782Y133163D02*
X270234Y133679D01*
X269350Y128535D02*
X274650D01*
X269391Y132535D02*
X274609D01*
X244450Y151735D02*
X249925D01*
X244450Y148535D02*
X249107D01*
X254350Y141681D02*
Y147481D01*
X249650Y141681D02*
Y147481D01*
X244450Y147735D02*
X249512D01*
X244450Y146935D02*
X249650D01*
X244450Y150935D02*
X249309D01*
X244450Y145335D02*
X249650D01*
X244450Y146135D02*
X249650D01*
X258736Y142135D02*
X265264D01*
X268737D02*
X275264D01*
X248737D02*
X249650D01*
X260129Y141335D02*
X263871D01*
X254350Y142135D02*
X255263D01*
X244450Y143735D02*
X249650D01*
X244450Y144535D02*
X249650D01*
X244450Y142935D02*
X249650D01*
X234300Y150935D02*
X239250D01*
X244450Y150135D02*
X249017D01*
X234300Y151735D02*
X239250D01*
X244450Y149335D02*
X248954D01*
X234300Y146935D02*
X239250D01*
X234300Y149335D02*
X239250D01*
X234300Y150135D02*
X239250D01*
X234300Y147735D02*
X239250D01*
X234300Y148535D02*
X239250D01*
X238737Y142135D02*
X239250D01*
X244450D02*
X245264D01*
X234300Y142935D02*
X239250D01*
X234300Y142135D02*
X235263D01*
X234300Y145335D02*
X239250D01*
X234300Y146135D02*
X239250D01*
X234300Y143735D02*
X239250D01*
X234300Y144535D02*
X239250D01*
X269350Y130935D02*
X274650D01*
X269350Y130135D02*
X274650D01*
X269350Y131735D02*
X274650D01*
X269350Y127735D02*
X274650D01*
X269350Y129335D02*
X274650D01*
X254350Y131735D02*
X264650D01*
X254350Y130935D02*
X264650D01*
X254350Y129335D02*
X264650D01*
X254350Y130135D02*
X264650D01*
X269350Y126135D02*
X274650D01*
X269350Y125335D02*
X274650D01*
X269350Y126935D02*
X274650D01*
X269350Y122135D02*
X274650D01*
X269350Y124535D02*
X274650D01*
X254350D02*
X264650D01*
X254350Y125335D02*
X264650D01*
X269350Y122935D02*
X274650D01*
X269350Y123735D02*
X274650D01*
X261417Y139735D02*
X262583D01*
X261625Y135735D02*
X262375D01*
X261737Y138935D02*
X262263D01*
X263487Y133962D02*
X263766Y133679D01*
X261234Y134935D02*
X262766D01*
X260910Y140535D02*
X263090D01*
X260631Y134135D02*
X263369D01*
X263766Y133679D02*
X264218Y133163D01*
X254350Y132535D02*
X264609D01*
X259676Y133335D02*
X264067D01*
X254350Y127735D02*
X264650D01*
X254350Y128535D02*
X264650D01*
X254350Y126135D02*
X264650D01*
X254350Y126935D02*
X264650D01*
X254350Y122935D02*
X264650D01*
X254350Y123735D02*
X264650D01*
X374388Y118935D02*
X394000D01*
X375188Y118135D02*
X394000D01*
X373588Y119735D02*
X394000D01*
X376788Y116535D02*
X394000D01*
X375988Y117335D02*
X394000D01*
X371988Y121335D02*
X394000D01*
X372788Y120535D02*
X394000D01*
X371188Y122135D02*
X394000D01*
X360850Y132473D02*
X378234Y115090D01*
X365350Y121327D02*
X374910Y111766D01*
X380742Y113335D02*
X394000D01*
X381003Y112535D02*
X394000D01*
X380178Y114135D02*
X394000D01*
X380858Y110935D02*
X394000D01*
X381038Y111735D02*
X394000D01*
X378828Y114935D02*
X394000D01*
X377588Y115735D02*
X394000D01*
X366038Y111735D02*
X374930D01*
X365350Y119735D02*
X366941D01*
X365350Y118935D02*
X367741D01*
X365350Y120535D02*
X366141D01*
X365350Y118135D02*
X368541D01*
X365350Y114019D02*
Y121327D01*
Y116535D02*
X370141D01*
X365350Y115735D02*
X370941D01*
X365350Y117335D02*
X369341D01*
X365350Y114935D02*
X371741D01*
X360650Y114019D02*
Y120406D01*
X365742Y113335D02*
X373341D01*
X366003Y112535D02*
X374141D01*
X365350Y114135D02*
X372541D01*
X354913Y111735D02*
X359962D01*
X354539Y113335D02*
X360258D01*
X354842Y112535D02*
X359997D01*
X354771Y110935D02*
X360142D01*
X379484Y109335D02*
X394000D01*
X360378Y87735D02*
X394000D01*
X380414Y110135D02*
X394000D01*
Y500D02*
Y216000D01*
X360400Y86935D02*
X394000D01*
X359304Y90135D02*
X394000D01*
X359866Y89335D02*
X394000D01*
X358368Y90935D02*
X394000D01*
X360275Y86135D02*
X394000D01*
X360207Y88535D02*
X394000D01*
X359500Y84535D02*
X394000D01*
X359644Y80535D02*
X394000D01*
X359988Y85335D02*
X394000D01*
X369777Y74935D02*
X394000D01*
X367972Y76535D02*
X394000D01*
X357244Y82935D02*
X394000D01*
X358706Y83735D02*
X394000D01*
X358844Y81335D02*
X394000D01*
X358044Y82135D02*
X394000D01*
X365414Y110135D02*
X375586D01*
X364484Y109335D02*
X376516D01*
X365858Y110935D02*
X375142D01*
X354378Y110135D02*
X360586D01*
X357204Y82975D02*
X363428Y76752D01*
X366988D01*
X368977Y75735D02*
X394000D01*
X368651Y76061D02*
X378758Y65954D01*
X361244Y78935D02*
X394000D01*
X360444Y79735D02*
X394000D01*
X362844Y77335D02*
X394000D01*
X362044Y78135D02*
X394000D01*
X353569Y109335D02*
X361516D01*
X350338Y108535D02*
X394000D01*
X354126Y114935D02*
X360650D01*
X350338Y106935D02*
X394000D01*
X350338Y107735D02*
X394000D01*
X350338Y105335D02*
X394000D01*
X350338Y104535D02*
X394000D01*
X350338Y106135D02*
X394000D01*
X350338Y102935D02*
X394000D01*
X350338Y103735D02*
X394000D01*
X350338Y98135D02*
X394000D01*
X350338Y97335D02*
X394000D01*
X350338Y98935D02*
X394000D01*
X350338Y95735D02*
X394000D01*
X350338Y96535D02*
X394000D01*
X350338Y101335D02*
X394000D01*
X350338Y102135D02*
X394000D01*
X350338Y99735D02*
X394000D01*
X350338Y100535D02*
X394000D01*
X354126Y118935D02*
X360650D01*
X354126Y118135D02*
X360650D01*
X354126Y119735D02*
X360650D01*
X354126Y116535D02*
X360650D01*
X354126Y117335D02*
X360650D01*
X354126Y121335D02*
X359720D01*
X354126Y120535D02*
X360521D01*
X354126Y122135D02*
X358921D01*
X354126Y126930D02*
X360650Y120406D01*
X354126Y113974D02*
Y126930D01*
Y115735D02*
X360650D01*
X354126Y114135D02*
X360650D01*
X336950Y106935D02*
X342536D01*
X336950Y107735D02*
X342536D01*
X336950Y113335D02*
X342536D01*
X279350Y116535D02*
X342536D01*
X336950Y108535D02*
X342536D01*
X336950Y109335D02*
X342536D01*
X350338Y94135D02*
X394000D01*
X350338Y93335D02*
X394000D01*
X350338Y94935D02*
X394000D01*
X350338Y92535D02*
X394000D01*
X350338Y91735D02*
X394000D01*
X350338Y90935D02*
X353631D01*
X350338Y90135D02*
X352695D01*
X350338Y89842D02*
Y109227D01*
Y89842D02*
X351759Y88421D01*
X350844Y89335D02*
X352133D01*
X324973Y79735D02*
X349441D01*
X343226Y85951D02*
X355320Y73856D01*
X324173Y78935D02*
X350241D01*
X323184Y77335D02*
X351841D01*
X323600Y78135D02*
X351041D01*
X320807Y75735D02*
X353441D01*
X322456Y76535D02*
X352641D01*
X340572Y94135D02*
X342536D01*
X339180Y93335D02*
X342536D01*
X341250Y94935D02*
X342536D01*
X336973Y91735D02*
X342536D01*
X337773Y92535D02*
X342536D01*
X334573Y89335D02*
X342536D01*
X335373Y90135D02*
X342536D01*
X331373Y86135D02*
X343059D01*
X330573Y85335D02*
X343841D01*
X332173Y86935D02*
X342636D01*
X328973Y83735D02*
X345441D01*
X329773Y84535D02*
X344641D01*
X327373Y82135D02*
X347041D01*
X328173Y82935D02*
X346241D01*
X325773Y80535D02*
X348641D01*
X326573Y81335D02*
X347841D01*
X374577Y70135D02*
X394000D01*
X375377Y69335D02*
X394000D01*
X373777Y70935D02*
X394000D01*
X376977Y67735D02*
X394000D01*
X376177Y68535D02*
X394000D01*
X371377Y73335D02*
X394000D01*
X372177Y72535D02*
X394000D01*
X370577Y74135D02*
X394000D01*
X372977Y71735D02*
X394000D01*
X366014Y72052D02*
X374952Y63114D01*
X379962Y65335D02*
X394000D01*
X380635Y64535D02*
X394000D01*
X378577Y66135D02*
X394000D01*
X380960Y63735D02*
X394000D01*
X377777Y66935D02*
X394000D01*
X365350Y65335D02*
X372730D01*
X365960Y63735D02*
X374330D01*
X365635Y64535D02*
X373530D01*
X364861Y70935D02*
X367130D01*
X365263Y70135D02*
X367930D01*
X365350Y69335D02*
X368730D01*
X365350Y65019D02*
Y69500D01*
X363772Y72052D02*
X366014D01*
X364088Y71735D02*
X366330D01*
X363772Y72052D02*
X364660Y71163D01*
X360356Y68820D02*
X360650Y68527D01*
X365350Y67735D02*
X370330D01*
X365350Y66935D02*
X371130D01*
X365350Y68535D02*
X369530D01*
X365350Y66135D02*
X371930D01*
X360041Y67735D02*
X360650D01*
X360302Y68535D02*
X360641D01*
X360650Y65019D02*
Y68527D01*
X359587Y66935D02*
X360650D01*
X380925Y62135D02*
X394000D01*
X380556Y61335D02*
X394000D01*
X381049Y62935D02*
X394000D01*
X364338Y25335D02*
X394000D01*
X379797Y60535D02*
X394000D01*
X361662Y28535D02*
X394000D01*
X362532Y27735D02*
X394000D01*
X360572Y29335D02*
X394000D01*
X363842Y26135D02*
X394000D01*
X363247Y26935D02*
X394000D01*
X365354Y22935D02*
X394000D01*
X365559Y22135D02*
X394000D01*
X365086Y23735D02*
X394000D01*
X365792Y20535D02*
X394000D01*
X365704Y21335D02*
X394000D01*
X364394Y14135D02*
X394000D01*
X364750Y24535D02*
X394000D01*
X363329Y12535D02*
X394000D01*
X363910Y13335D02*
X394000D01*
X365925Y62135D02*
X375075D01*
X366049Y62935D02*
X374951D01*
X365799Y18935D02*
X394000D01*
X365823Y19735D02*
X394000D01*
X364797Y60535D02*
X376203D01*
X365556Y61335D02*
X375444D01*
X365581Y17335D02*
X394000D01*
X365383Y16535D02*
X394000D01*
X365718Y18135D02*
X394000D01*
X364796Y14935D02*
X394000D01*
X365123Y15735D02*
X394000D01*
X361782Y10935D02*
X394000D01*
X362630Y11735D02*
X394000D01*
X359327Y9335D02*
X394000D01*
X360725Y10135D02*
X394000D01*
X357448Y65335D02*
X360650D01*
X306106Y58135D02*
X394000D01*
X358850Y66135D02*
X360650D01*
X307706Y56535D02*
X394000D01*
X306906Y57335D02*
X394000D01*
X302906Y61335D02*
X360444D01*
X303706Y60535D02*
X361203D01*
X299706Y64535D02*
X360365D01*
X305306Y58935D02*
X394000D01*
X304506Y59735D02*
X394000D01*
X312506Y51735D02*
X394000D01*
X313306Y50935D02*
X394000D01*
X311706Y52535D02*
X394000D01*
X314906Y49335D02*
X394000D01*
X314106Y50135D02*
X394000D01*
X309306Y54935D02*
X394000D01*
X308506Y55735D02*
X394000D01*
X310906Y53335D02*
X394000D01*
X310106Y54135D02*
X394000D01*
X292506Y71735D02*
X352200D01*
X293306Y70935D02*
X351831D01*
X294106Y70135D02*
X351637D01*
X290106Y74135D02*
X355041D01*
X289306Y74935D02*
X354241D01*
X290906Y73335D02*
X353825D01*
X291706Y72535D02*
X352802D01*
X298906Y65335D02*
X354552D01*
X300506Y63735D02*
X360040D01*
X298106Y66135D02*
X353151D01*
X302106Y62135D02*
X360075D01*
X301306Y62935D02*
X359951D01*
X295706Y68535D02*
X351698D01*
X294906Y69335D02*
X351594D01*
X297306Y66935D02*
X352414D01*
X296506Y67735D02*
X351959D01*
X320506Y43735D02*
X394000D01*
X321306Y42935D02*
X394000D01*
X319706Y44535D02*
X394000D01*
X322906Y41335D02*
X394000D01*
X322106Y42135D02*
X394000D01*
X316506Y47735D02*
X394000D01*
X317306Y46935D02*
X394000D01*
X315706Y48535D02*
X394000D01*
X318906Y45335D02*
X394000D01*
X318106Y46135D02*
X394000D01*
X327706Y36535D02*
X394000D01*
X328506Y35735D02*
X394000D01*
X326906Y37335D02*
X394000D01*
X330535Y34135D02*
X394000D01*
X329306Y34935D02*
X394000D01*
X324506Y39735D02*
X394000D01*
X323706Y40535D02*
X394000D01*
X326106Y38135D02*
X394000D01*
X325306Y38935D02*
X394000D01*
X356677Y30935D02*
X394000D01*
X359113Y30135D02*
X394000D01*
X332041Y31735D02*
X394000D01*
X331869Y32535D02*
X394000D01*
X331436Y33335D02*
X394000D01*
X331997Y30935D02*
X351984D01*
X331728Y30135D02*
X349549D01*
X357117Y8535D02*
X394000D01*
X331149Y29335D02*
X348090D01*
X329717Y28535D02*
X346999D01*
X336950Y115735D02*
X342536D01*
X336950Y114935D02*
X342536D01*
X327050Y115950D02*
X336950D01*
Y114135D02*
X342536D01*
X325568D02*
X327050D01*
X322372Y115735D02*
X327050D01*
X324660Y114935D02*
X327050D01*
X313442Y115735D02*
X321628D01*
X315002Y114935D02*
X319340D01*
X336950Y112535D02*
X342536D01*
X336950Y111735D02*
X342536D01*
X326693D02*
X327050D01*
X336950Y110935D02*
X342536D01*
X326750D02*
X327050D01*
X326495Y112535D02*
X327050D01*
X326136Y113335D02*
X327050D01*
X305002Y114935D02*
X308998D01*
X315830Y114135D02*
X318432D01*
X305830D02*
X308170D01*
X316364Y113335D02*
X317864D01*
X306364D02*
X307636D01*
X293442Y115735D02*
X300558D01*
X303442D02*
X310558D01*
X295003Y114935D02*
X298997D01*
X295830Y114135D02*
X298170D01*
X285830D02*
X288170D01*
X316706Y112535D02*
X317505D01*
X316895Y111735D02*
X317307D01*
X306706Y112535D02*
X307294D01*
X316874Y110135D02*
X317329D01*
X316950Y110935D02*
X317250D01*
X296364Y113335D02*
X297636D01*
X286364D02*
X287636D01*
X296706Y112535D02*
X297294D01*
X286706D02*
X287294D01*
X336950Y106050D02*
Y115950D01*
Y110135D02*
X342536D01*
X326671D02*
X327050D01*
X342536Y87614D02*
Y160622D01*
X327050Y106050D02*
Y115950D01*
X326061Y108535D02*
X327050D01*
X325450Y107735D02*
X327050D01*
X326449Y109335D02*
X327050D01*
X336950Y106135D02*
X342536D01*
X339524Y100535D02*
X342536D01*
X327050Y106050D02*
X336950D01*
X340709Y99735D02*
X342536D01*
X324458Y106935D02*
X327050D01*
X315721Y107735D02*
X318550D01*
X312916Y106135D02*
X327050D01*
X314825Y106935D02*
X319542D01*
X316662Y109335D02*
X317551D01*
X306293Y108535D02*
X307707D01*
X306662Y109335D02*
X307338D01*
X296662D02*
X297338D01*
X286662D02*
X287338D01*
X296293Y108535D02*
X297707D01*
X316293D02*
X317939D01*
X305721Y107735D02*
X308279D01*
X295721D02*
X298279D01*
X302916Y106135D02*
X311084D01*
X304825Y106935D02*
X309175D01*
X285721Y107735D02*
X288279D01*
X286293Y108535D02*
X287707D01*
X292916Y106135D02*
X301084D01*
X294825Y106935D02*
X299175D01*
X279350Y121335D02*
X342536D01*
X279350Y120535D02*
X342536D01*
X279350Y122135D02*
X342536D01*
X279350Y118935D02*
X342536D01*
X279350Y115181D02*
Y132327D01*
X269350Y121335D02*
X274650D01*
X279350Y119735D02*
X342536D01*
X269350D02*
X274650D01*
X279350Y118135D02*
X342536D01*
X269350Y118935D02*
X274650D01*
X279350Y117335D02*
X342536D01*
X283442Y115735D02*
X290558D01*
X273442D02*
X274650D01*
X285002Y114935D02*
X288998D01*
X279350Y115735D02*
X280558D01*
X269350Y117335D02*
X274650D01*
X269350Y118135D02*
X274650D01*
X269350Y116535D02*
X274650D01*
Y115181D02*
Y132327D01*
X269350Y120535D02*
X274650D01*
X254350Y122135D02*
X264650D01*
X269350Y115181D02*
Y132327D01*
X264650Y115181D02*
Y132327D01*
X254350Y120535D02*
X264650D01*
X254350Y121335D02*
X264650D01*
X254350Y118935D02*
X264650D01*
X254350Y119735D02*
X264650D01*
X254350Y117335D02*
X264650D01*
X254350Y116535D02*
X264650D01*
X254350Y118135D02*
X264650D01*
X269350Y115735D02*
X270558D01*
X263442D02*
X264650D01*
X254350D02*
X260558D01*
X254350Y114935D02*
X258998D01*
X254350Y114135D02*
X258170D01*
X254350Y113335D02*
X257636D01*
X284825Y106935D02*
X289175D01*
X282916Y106135D02*
X291084D01*
X279350Y84891D02*
Y106819D01*
X262916Y106135D02*
X264650D01*
X279350D02*
X281084D01*
X279350Y105335D02*
X342536D01*
X254350D02*
X264650D01*
X279350Y103735D02*
X342536D01*
X279350Y102935D02*
X342536D01*
X279350Y104535D02*
X342536D01*
X279350Y102135D02*
X342536D01*
X279350Y99735D02*
X335291D01*
X279350Y101335D02*
X342536D01*
X254350Y104535D02*
X264650D01*
X279350Y100535D02*
X336476D01*
X279350Y98935D02*
X334672D01*
X254350Y109335D02*
X257338D01*
X254350Y108535D02*
X257707D01*
X254350Y110135D02*
X257126D01*
X254350Y106935D02*
X259175D01*
X254350Y107735D02*
X258279D01*
X254350Y112535D02*
X257294D01*
X254350Y111735D02*
X257105D01*
X254350Y110935D02*
X257050D01*
X254350Y91439D02*
Y133319D01*
Y103735D02*
X264650D01*
X254350Y102935D02*
X264650D01*
X254350Y106135D02*
X261084D01*
X264650Y87000D02*
Y106819D01*
X254350Y102135D02*
X264650D01*
X254350Y100535D02*
X264650D01*
X254350Y101335D02*
X264650D01*
X254350Y98935D02*
X264650D01*
X254350Y99735D02*
X264650D01*
X341679Y98135D02*
X342536D01*
X341835Y97335D02*
X342536D01*
X341328Y98935D02*
X342536D01*
X341636Y95735D02*
X342536D01*
X341822Y96535D02*
X342536D01*
X336173Y90935D02*
X342536D01*
X333773Y88535D02*
X342536D01*
X323710Y78473D02*
X338409Y93172D01*
X318973Y83210D02*
X334637Y98875D01*
X332973Y87735D02*
X342536D01*
X288506Y75735D02*
X319194D01*
X287706Y76535D02*
X317544D01*
X299654Y46135D02*
X304541D01*
X285306Y78935D02*
X316192D01*
X284506Y79735D02*
X316157D01*
X286906Y77335D02*
X316816D01*
X286106Y78135D02*
X316400D01*
X289254Y56535D02*
X294141D01*
X290054Y55735D02*
X294941D01*
X288454Y57335D02*
X293341D01*
X291654Y54135D02*
X296541D01*
X290854Y54935D02*
X295741D01*
X285254Y60535D02*
X290141D01*
X286054Y59735D02*
X290941D01*
X284454Y61335D02*
X289341D01*
X287654Y58135D02*
X292541D01*
X286854Y58935D02*
X291741D01*
X296454Y49335D02*
X301341D01*
X297254Y48535D02*
X302141D01*
X295654Y50135D02*
X300541D01*
X298854Y46935D02*
X303741D01*
X298054Y47735D02*
X302941D01*
X293254Y52535D02*
X298141D01*
X292454Y53335D02*
X297341D01*
X294854Y50935D02*
X299741D01*
X294054Y51735D02*
X298941D01*
X313976Y32535D02*
X318141D01*
X314217Y31735D02*
X318941D01*
X313441Y33335D02*
X317341D01*
X310054Y35735D02*
X314941D01*
X310854Y34935D02*
X315741D01*
X309254Y36535D02*
X314141D01*
X312226Y34135D02*
X316541D01*
X325925Y30135D02*
X326272D01*
X325556Y29335D02*
X326851D01*
X314237Y30935D02*
X319741D01*
X324797Y28535D02*
X328283D01*
X313569Y29335D02*
X320444D01*
X314039Y30135D02*
X320075D01*
X312572Y28535D02*
X321203D01*
X304454Y41335D02*
X309341D01*
X305254Y40535D02*
X310141D01*
X303654Y42135D02*
X308541D01*
X306854Y38935D02*
X311741D01*
X306054Y39735D02*
X310941D01*
X301254Y44535D02*
X306141D01*
X300454Y45335D02*
X305341D01*
X302854Y42935D02*
X307741D01*
X302054Y43735D02*
X306941D01*
X307654Y38135D02*
X312541D01*
X308454Y37335D02*
X313341D01*
X307643Y29335D02*
X308840D01*
X306483Y28535D02*
X309837D01*
X301649Y29335D02*
X303114D01*
X302228Y30135D02*
X302593D01*
X300217Y28535D02*
X304274D01*
X279350Y94135D02*
X329898D01*
X279350Y93335D02*
X329098D01*
X279350Y92535D02*
X328298D01*
X279350Y91735D02*
X327498D01*
X279350Y90935D02*
X326698D01*
X279350Y98135D02*
X333898D01*
X279350Y97335D02*
X333098D01*
X279350Y96535D02*
X332298D01*
X279350Y95735D02*
X331498D01*
X279350Y94935D02*
X330698D01*
X279350Y90135D02*
X325898D01*
X279350Y89335D02*
X325098D01*
X279350Y88535D02*
X324298D01*
X279350Y87735D02*
X323498D01*
X279706Y84535D02*
X320298D01*
X279350Y86935D02*
X322698D01*
X279350Y86135D02*
X321898D01*
X279350Y85335D02*
X321098D01*
X260454D02*
X265341D01*
X254350Y94135D02*
X264650D01*
X254350Y93335D02*
X264650D01*
X254350Y94935D02*
X264650D01*
X254350Y91735D02*
X264650D01*
X254350Y92535D02*
X264650D01*
X254350Y97335D02*
X264650D01*
X254350Y98135D02*
X264650D01*
X254350Y95735D02*
X264650D01*
X254350Y96535D02*
X264650D01*
X258854Y86935D02*
X264651D01*
X259654Y86135D02*
X264815D01*
X258054Y87735D02*
X264650D01*
X255654Y90135D02*
X264650D01*
X254854Y90935D02*
X264650D01*
X257254Y88535D02*
X264650D01*
X256454Y89335D02*
X264650D01*
X280506Y83735D02*
X319498D01*
X281306Y82935D02*
X318262D01*
X282106Y82135D02*
X317193D01*
X282906Y81335D02*
X316616D01*
X283706Y80535D02*
X316292D01*
X279350Y84891D02*
X329797Y34444D01*
X276454Y69335D02*
X281341D01*
X275654Y70135D02*
X280541D01*
X265340Y85337D02*
X319910Y30766D01*
X254350Y91439D02*
X311438Y34351D01*
X281254Y64535D02*
X286141D01*
X282054Y63735D02*
X286941D01*
X280454Y65335D02*
X285341D01*
X283654Y62135D02*
X288541D01*
X282854Y62935D02*
X287741D01*
X278054Y67735D02*
X282941D01*
X277254Y68535D02*
X282141D01*
X279654Y66135D02*
X284541D01*
X278854Y66935D02*
X283741D01*
X265254Y80535D02*
X270141D01*
X266054Y79735D02*
X270941D01*
X264454Y81335D02*
X269341D01*
X267654Y78135D02*
X272541D01*
X266854Y78935D02*
X271741D01*
X262054Y83735D02*
X266941D01*
X261254Y84535D02*
X266141D01*
X263654Y82135D02*
X268541D01*
X262854Y82935D02*
X267741D01*
X272454Y73335D02*
X277341D01*
X273254Y72535D02*
X278141D01*
X271654Y74135D02*
X276541D01*
X274854Y70935D02*
X279741D01*
X274054Y71735D02*
X278941D01*
X269254Y76535D02*
X274141D01*
X268454Y77335D02*
X273341D01*
X270854Y74935D02*
X275741D01*
X270054Y75735D02*
X274941D01*
X150654Y200535D02*
X153090D01*
X151191Y199735D02*
X152584D01*
X151528Y198935D02*
X152263D01*
X151707Y198135D02*
X152091D01*
X140040Y201150D02*
X143960D01*
X150040D02*
X153656D01*
X140654Y200535D02*
X143346D01*
X152010Y197156D02*
X152014Y197494D01*
X233659Y185335D02*
X261512D01*
X151296Y195473D02*
X151554Y195731D01*
X140353Y194135D02*
X143648D01*
X139284Y193335D02*
X144716D01*
X141191Y199735D02*
X142809D01*
X141528Y198935D02*
X142472D01*
X141707Y198135D02*
X142293D01*
X116214Y201150D02*
X133960D01*
X115600Y200535D02*
X133346D01*
X114800Y199735D02*
X132809D01*
X114000Y198935D02*
X132472D01*
X113200Y198135D02*
X132293D01*
X141747Y197335D02*
X142253D01*
X141651Y196535D02*
X142349D01*
X140998Y194935D02*
X143002D01*
X141410Y195735D02*
X142590D01*
X112400Y197335D02*
X132253D01*
X111600Y196535D02*
X132349D01*
X232859Y184535D02*
X260712D01*
X232059Y183735D02*
X259912D01*
X231259Y182935D02*
X259112D01*
X230462Y169335D02*
X333822D01*
X230459Y182135D02*
X258312D01*
X229659Y181335D02*
X257512D01*
X229394Y180535D02*
X256712D01*
X229590Y181266D02*
X238660Y190337D01*
X228988Y179735D02*
X255912D01*
X228647Y179333D02*
X255510D01*
X232688Y166135D02*
X238517D01*
X234083Y164535D02*
X238607D01*
X233488Y165335D02*
X238454D01*
X231135Y168535D02*
X241202D01*
X231460Y167735D02*
X239425D01*
X231888Y166935D02*
X238809D01*
X231590Y167234D02*
X233610Y165214D01*
X204888Y162935D02*
X229241D01*
X229600Y141712D02*
Y162577D01*
X228266Y163910D02*
X229600Y162577D01*
X138665Y182843D02*
X149028Y193205D01*
X204796Y163027D02*
X225004Y142819D01*
X209688Y158135D02*
X229600D01*
X210488Y157335D02*
X229600D01*
X208888Y158935D02*
X229600D01*
X212088Y155735D02*
X229600D01*
X211288Y156535D02*
X229600D01*
X206488Y161335D02*
X229600D01*
X205688Y162135D02*
X229600D01*
X208088Y159735D02*
X229600D01*
X207288Y160535D02*
X229600D01*
X-492Y213335D02*
X394000D01*
X94298Y212535D02*
X394000D01*
X95286Y212350D02*
X234500D01*
X96425Y207650D02*
X111752D01*
X95651Y206935D02*
X111038D01*
X-499Y216535D02*
X393465D01*
X-497Y215735D02*
X394000D01*
X-500Y217000D02*
X393000D01*
X-493Y214135D02*
X394000D01*
X-495Y214935D02*
X394000D01*
X49137Y202935D02*
X107038D01*
X110800Y195735D02*
X132590D01*
X49590Y202135D02*
X106238D01*
X109200Y194135D02*
X133648D01*
X110000Y194935D02*
X133002D01*
X46180Y206135D02*
X110238D01*
X47152Y205335D02*
X109438D01*
X47940Y204535D02*
X108638D01*
X48593Y203735D02*
X107838D01*
X43138Y207735D02*
X91512D01*
X44932Y206935D02*
X92349D01*
X-481Y208535D02*
X91106D01*
X49963Y201335D02*
X105438D01*
X-490Y212535D02*
X93702D01*
X-488Y211735D02*
X91925D01*
X-486Y210935D02*
X91309D01*
X-484Y210135D02*
X91017D01*
X-482Y209335D02*
X90954D01*
X50794Y198135D02*
X102238D01*
X50854Y197335D02*
X101438D01*
X50858Y196535D02*
X100638D01*
X50806Y195735D02*
X99838D01*
X50697Y194935D02*
X99038D01*
X50265Y200535D02*
X104638D01*
X50502Y199735D02*
X103838D01*
X50677Y198935D02*
X103038D01*
X50531Y194135D02*
X98238D01*
X107600Y192535D02*
X148358D01*
X106800Y191735D02*
X147558D01*
X106000Y190935D02*
X146758D01*
X105200Y190135D02*
X145958D01*
X104400Y189335D02*
X145158D01*
X103600Y188535D02*
X144358D01*
X102800Y187735D02*
X143558D01*
X102000Y186935D02*
X142758D01*
X-392Y170135D02*
X333022D01*
X76500Y170650D02*
X262500D01*
X77767Y165335D02*
X225944D01*
X77921Y164535D02*
X226703D01*
X77466Y166135D02*
X225575D01*
X77943Y163735D02*
X228441D01*
X80367Y163717D02*
X203133D01*
X-390Y169335D02*
X226538D01*
X74983Y168535D02*
X225865D01*
X76248Y167735D02*
X225540D01*
X76986Y166935D02*
X225451D01*
X50303Y193335D02*
X97438D01*
X108400D02*
X134716D01*
X50011Y192535D02*
X96638D01*
X97907Y182843D02*
X116214Y201150D01*
X91895Y187793D02*
X111752Y207650D01*
X49648Y191735D02*
X95838D01*
X49207Y190935D02*
X95038D01*
X48677Y190135D02*
X94238D01*
X48041Y189335D02*
X93438D01*
X101200Y186135D02*
X141958D01*
X100400Y185335D02*
X141158D01*
X99600Y184535D02*
X140358D01*
X98800Y183735D02*
X139558D01*
X98000Y182935D02*
X138758D01*
X47274Y188535D02*
X92638D01*
X90052Y187793D02*
X91895D01*
X97907Y182843D02*
X138665D01*
X217688Y150135D02*
X229600D01*
X218488Y149335D02*
X229600D01*
X216888Y150935D02*
X229600D01*
X220088Y147735D02*
X229600D01*
X219288Y148535D02*
X229600D01*
X213688Y154135D02*
X229600D01*
X214488Y153335D02*
X229600D01*
X212888Y154935D02*
X229600D01*
X216088Y151735D02*
X229600D01*
X215288Y152535D02*
X229600D01*
X223288Y144535D02*
X229600D01*
X224088Y143735D02*
X229600D01*
X222488Y145335D02*
X229600D01*
X224888Y142935D02*
X229600D01*
X225901Y142534D02*
X226585Y142489D01*
X221688Y146135D02*
X229600D01*
X220888Y146935D02*
X229600D01*
X205435Y142935D02*
X208741D01*
X204588Y143735D02*
X207941D01*
X200588Y147735D02*
X203941D01*
X201388Y146935D02*
X204741D01*
X199788Y148535D02*
X203141D01*
X202988Y145335D02*
X206341D01*
X202188Y146135D02*
X205541D01*
X198188Y150135D02*
X201541D01*
X198163Y150160D02*
X205310Y143014D01*
X198988Y149335D02*
X202341D01*
X203788Y144535D02*
X207141D01*
X206074Y142694D02*
X206720Y142565D01*
X194888Y142935D02*
X198741D01*
X196585Y142489D02*
X196982Y142486D01*
X195901Y142534D02*
X196585Y142489D01*
X193288Y144535D02*
X197141D01*
X192468Y145335D02*
X196341D01*
X194088Y143735D02*
X197941D01*
X192664Y145160D02*
X195004Y142819D01*
X228736Y142135D02*
X229600D01*
X226585Y142489D02*
X226982Y142486D01*
X222011Y137915D02*
X222014Y137518D01*
X221966Y138599D02*
X222011Y137915D01*
X221390Y139786D02*
X221680Y139496D01*
X212085Y138438D02*
X212104Y139056D01*
X211737Y138935D02*
X212100D01*
X221234Y134935D02*
X222766D01*
X220631Y134135D02*
X223369D01*
X221625Y135735D02*
X222375D01*
X219676Y133335D02*
X224324D01*
X211234Y134935D02*
X212766D01*
X211625Y135735D02*
X212375D01*
X209676Y133335D02*
X214324D01*
X210631Y134135D02*
X213369D01*
X208736Y142135D02*
X209541D01*
X211417Y139735D02*
X211910D01*
X206720Y142565D02*
X207569Y142453D01*
X201416Y139735D02*
X201910D01*
X199134Y152542D02*
X211878Y139799D01*
X198737Y142135D02*
X199541D01*
X195527Y146150D02*
X201878Y139799D01*
X202085Y138438D02*
X202104Y139056D01*
X212048Y138079D02*
X212085Y138438D01*
X201737Y138935D02*
X202100D01*
X202048Y138079D02*
X202085Y138438D01*
X201234Y134935D02*
X202766D01*
X201625Y135735D02*
X202375D01*
X199676Y133335D02*
X204324D01*
X200631Y134135D02*
X203369D01*
X97500Y150850D02*
X196500D01*
X98459Y146135D02*
X195541D01*
X98473Y146150D02*
X195527D01*
X84859Y152535D02*
X199141D01*
X84059Y151735D02*
X199941D01*
X84866Y152542D02*
X199134D01*
X83259Y150935D02*
X200741D01*
X102500Y145850D02*
X191000D01*
X97659Y145335D02*
X101032D01*
X191390Y139786D02*
X191681Y139496D01*
X96859Y144535D02*
X100212D01*
X96059Y143735D02*
X99412D01*
X95259Y142935D02*
X98612D01*
X94459Y142135D02*
X97812D01*
X82459Y150135D02*
X95812D01*
X81659Y149335D02*
X95012D01*
X84840Y139163D02*
X95837Y150160D01*
X80859Y148535D02*
X94212D01*
X80059Y147735D02*
X93412D01*
X79259Y146935D02*
X92612D01*
X78459Y146135D02*
X91812D01*
X78067Y145335D02*
X91012D01*
X93659Y141335D02*
X97012D01*
X92859Y140535D02*
X96212D01*
X92059Y139735D02*
X95412D01*
X91259Y138935D02*
X94612D01*
X90459Y138135D02*
X93812D01*
X77997Y144535D02*
X90212D01*
X77943Y143735D02*
X89412D01*
X77834Y142935D02*
X88612D01*
X77585Y142135D02*
X87812D01*
X190631Y134135D02*
X193369D01*
X189676Y133335D02*
X194324D01*
X191234Y134935D02*
X192766D01*
X187086Y132535D02*
X229600D01*
X183759Y130935D02*
X229600D01*
X182959Y130135D02*
X229600D01*
X184559Y131735D02*
X229600D01*
X181359Y128535D02*
X229600D01*
X182159Y129335D02*
X229600D01*
X179759Y126935D02*
X229600D01*
X178959Y126135D02*
X229600D01*
X180559Y127735D02*
X229600D01*
X177359Y124535D02*
X229600D01*
X178159Y125335D02*
X229600D01*
X175759Y122935D02*
X229600D01*
X176559Y123735D02*
X229600D01*
X174159Y121335D02*
X229600D01*
X174959Y122135D02*
X229600D01*
X191966Y138599D02*
X192011Y137915D01*
X192014Y137518D01*
X89659Y137335D02*
X93012D01*
X88166Y135843D02*
X98473Y146150D01*
X88859Y136535D02*
X92212D01*
X77390Y121714D02*
X100837Y145160D01*
X78320Y125996D02*
X88160Y135837D01*
X88059Y135735D02*
X91412D01*
X191625D02*
X192375D01*
X87259Y134935D02*
X90612D01*
X186585Y132511D02*
X186982Y132514D01*
X185901Y132466D02*
X186585Y132511D01*
X86459Y134135D02*
X89812D01*
X85659Y133335D02*
X89012D01*
X84859Y132535D02*
X88212D01*
X84059Y131735D02*
X87412D01*
X84336Y186935D02*
X85690D01*
X78035Y186135D02*
X79926D01*
X73532Y185335D02*
X74064D01*
X71849Y187735D02*
X86508D01*
X72857Y186935D02*
X80664D01*
X65849Y187735D02*
X69151D01*
X73331Y186135D02*
X74965D01*
X78936Y185335D02*
X79567D01*
X77390Y161714D02*
X78704Y163027D01*
X77834Y162935D02*
X78612D01*
X64266Y181910D02*
X74836Y171340D01*
X73590Y185234D02*
X73837Y184987D01*
X46333Y187735D02*
X63151D01*
X66857Y186935D02*
X68143D01*
X45134D02*
X62143D01*
X67331Y186135D02*
X67669D01*
X43453D02*
X61669D01*
X21996Y164535D02*
X68079D01*
X24006Y163735D02*
X68057D01*
X26178Y162135D02*
X68415D01*
X25252Y162935D02*
X68166D01*
X74996Y159319D02*
X75286Y159610D01*
X73415Y158989D02*
X74099Y159034D01*
X73018Y158986D02*
X73415Y158989D01*
X27486Y160535D02*
X69465D01*
X27952Y159735D02*
X70487D01*
X26904Y161335D02*
X68828D01*
X28322Y158935D02*
X72620D01*
X57361Y149335D02*
X71343D01*
X74657D02*
X75012D01*
X56888Y150135D02*
X69907D01*
X78320Y145996D02*
X84866Y152542D01*
X74996Y149320D02*
X75286Y149610D01*
X28607Y158135D02*
X70280D01*
X28814Y157335D02*
X69342D01*
X56188Y150935D02*
X69113D01*
X28950Y156535D02*
X68749D01*
X29017Y155735D02*
X68364D01*
X29016Y154935D02*
X68139D01*
X28948Y154135D02*
X68052D01*
X28811Y153335D02*
X68095D01*
X28601Y152535D02*
X68272D01*
X45081Y151735D02*
X49919D01*
X55081D02*
X68598D01*
X46188Y150935D02*
X48812D01*
X46888Y150135D02*
X48112D01*
X28315Y151735D02*
X39919D01*
X27943Y150935D02*
X38812D01*
X27474Y150135D02*
X38112D01*
X26890Y149335D02*
X37639D01*
X-434Y188535D02*
X31466D01*
X-433Y187735D02*
X32407D01*
X-436Y189335D02*
X30699D01*
X-429Y186135D02*
X35287D01*
X-431Y186935D02*
X33607D01*
X-479Y207735D02*
X35602D01*
X-477Y206935D02*
X33809D01*
X-475Y206135D02*
X32560D01*
X-473Y205335D02*
X31589D01*
X-471Y204535D02*
X30800D01*
X-418Y181335D02*
X64841D01*
X-416Y180535D02*
X65641D01*
X-420Y182135D02*
X63453D01*
X-412Y178935D02*
X67241D01*
X-414Y179735D02*
X66441D01*
X-425Y184535D02*
X61486D01*
X-427Y185335D02*
X61468D01*
X-422Y182935D02*
X62255D01*
X-423Y183735D02*
X61725D01*
X-462Y200535D02*
X28475D01*
X-460Y199735D02*
X28238D01*
X-458Y198935D02*
X28063D01*
X-457Y198135D02*
X27947D01*
X-455Y197335D02*
X27887D01*
X-469Y203735D02*
X30148D01*
X-468Y202935D02*
X29603D01*
X-466Y202135D02*
X29151D01*
X-464Y201335D02*
X28777D01*
X-444Y192535D02*
X28730D01*
X-442Y191735D02*
X29092D01*
X-446Y193335D02*
X28437D01*
X-438Y190135D02*
X30064D01*
X-440Y190935D02*
X29533D01*
X-451Y195735D02*
X27935D01*
X-453Y196535D02*
X27883D01*
X-447Y194135D02*
X28210D01*
X-449Y194935D02*
X28043D01*
X-399Y173335D02*
X72841D01*
X-398Y172535D02*
X73641D01*
X-401Y174135D02*
X72041D01*
X-394Y170935D02*
X75378D01*
X-396Y171735D02*
X74441D01*
X-409Y177335D02*
X68841D01*
X-407Y176535D02*
X69641D01*
X-410Y178135D02*
X68041D01*
X-403Y174935D02*
X71241D01*
X-405Y175735D02*
X70441D01*
X-381Y165335D02*
X68234D01*
X-379Y164535D02*
X17005D01*
X-377Y163735D02*
X14996D01*
X-388Y168535D02*
X71017D01*
X-387Y167735D02*
X69752D01*
X-385Y166935D02*
X69014D01*
X-383Y166135D02*
X68534D01*
X-368Y159735D02*
X11050D01*
X-366Y158935D02*
X10680D01*
X-364Y158135D02*
X10395D01*
X-362Y157335D02*
X10187D01*
X-361Y156535D02*
X10052D01*
X-375Y162935D02*
X13749D01*
X-374Y162135D02*
X12823D01*
X-372Y161335D02*
X12097D01*
X-370Y160535D02*
X11516D01*
X-350Y151735D02*
X10687D01*
X-348Y150935D02*
X11059D01*
X-351Y152535D02*
X10400D01*
X-344Y149335D02*
X12111D01*
X-346Y150135D02*
X11527D01*
X-357Y154935D02*
X9985D01*
X-359Y155735D02*
X9985D01*
X-353Y153335D02*
X10191D01*
X-355Y154135D02*
X10054D01*
X77989Y144415D02*
X78034Y145099D01*
X77172Y141335D02*
X87012D01*
X77986Y144018D02*
X77989Y144415D01*
X76535Y140535D02*
X86212D01*
X75513Y139735D02*
X85412D01*
X73415Y148989D02*
X74099Y149034D01*
X73018Y148986D02*
X73415Y148989D01*
X63888Y138935D02*
X84612D01*
X77422Y135735D02*
X81412D01*
X77657Y134935D02*
X80612D01*
X77748Y134135D02*
X79812D01*
X77703Y133335D02*
X79012D01*
X77519Y132535D02*
X78212D01*
X75337Y138135D02*
X83812D01*
X76382Y137335D02*
X83012D01*
X77017Y136535D02*
X82212D01*
X61488Y141335D02*
X68828D01*
X62288Y140535D02*
X69465D01*
X60688Y142135D02*
X68415D01*
X64688Y138135D02*
X70663D01*
X63088Y139735D02*
X70487D01*
X58024Y145335D02*
X68234D01*
X58306Y144535D02*
X68079D01*
X59088Y143735D02*
X68057D01*
X59888Y142935D02*
X68166D01*
X58329Y144495D02*
X66160Y136663D01*
X66732Y135735D02*
X68578D01*
X66850Y134935D02*
X68343D01*
X66850Y134135D02*
X68252D01*
X66850Y133335D02*
X68297D01*
X65488Y137335D02*
X69618D01*
X66279Y136535D02*
X68983D01*
X83259Y130935D02*
X86612D01*
X82459Y130135D02*
X85812D01*
X81659Y129335D02*
X85012D01*
X80859Y128535D02*
X84212D01*
X80059Y127735D02*
X83412D01*
X76708Y131032D02*
X84834Y139157D01*
X73897Y129335D02*
X75012D01*
X74996Y129320D02*
X75968Y130292D01*
X79259Y126935D02*
X82612D01*
X78459Y126135D02*
X81812D01*
X78067Y125335D02*
X81012D01*
X77997Y124535D02*
X80212D01*
X77989Y124415D02*
X78034Y125099D01*
X77943Y123735D02*
X79412D01*
X77986Y124018D02*
X77989Y124415D01*
X77834Y122935D02*
X78612D01*
X66850Y131735D02*
X68825D01*
X66850Y132535D02*
X68481D01*
X73415Y128989D02*
X74099Y129034D01*
X73018Y128986D02*
X73415Y128989D01*
X66850Y130135D02*
X70238D01*
X66850Y130935D02*
X69371D01*
X66850Y129335D02*
X72103D01*
X66850Y128535D02*
X71017D01*
X66850Y124535D02*
X68079D01*
X66850Y122935D02*
X68166D01*
X66850Y123735D02*
X68057D01*
X66850Y121335D02*
X68828D01*
X66850Y122135D02*
X68415D01*
X66850Y127735D02*
X69752D01*
X66850Y126935D02*
X69014D01*
X66850Y126135D02*
X68534D01*
X66850Y125335D02*
X68234D01*
X57670Y148535D02*
X71017D01*
X57843Y147735D02*
X69752D01*
X57929Y146935D02*
X69014D01*
X57932Y146491D02*
X57982Y145653D01*
X57929Y146975D02*
X57932Y146491D01*
X26160Y148535D02*
X37330D01*
X25229Y147735D02*
X37157D01*
X23973Y146935D02*
X37070D01*
X37068Y146491D02*
X37071Y146975D01*
X37018Y145653D02*
X37068Y146491D01*
X57953Y146135D02*
X68534D01*
X57982Y145653D02*
X58021Y145353D01*
X36979D02*
X37018Y145653D01*
X25952Y142935D02*
X35112D01*
X26754Y142135D02*
X34312D01*
X21931Y146135D02*
X37047D01*
X20464Y145335D02*
X36976D01*
X23472Y144535D02*
X36694D01*
X24917Y143735D02*
X35912D01*
X-335Y145335D02*
X18538D01*
X-333Y144535D02*
X15530D01*
X-331Y143735D02*
X14085D01*
X-329Y142935D02*
X13050D01*
X-328Y142135D02*
X12247D01*
X-340Y147735D02*
X13772D01*
X-342Y148535D02*
X12841D01*
X-337Y146135D02*
X17071D01*
X-339Y146935D02*
X15029D01*
X27396Y141335D02*
X33512D01*
X27914Y140535D02*
X32712D01*
X28329Y139735D02*
X31912D01*
X28656Y138935D02*
X31112D01*
X-318Y138135D02*
X10097D01*
X-326Y141335D02*
X11605D01*
X-324Y140535D02*
X11088D01*
X-322Y139735D02*
X10672D01*
X-320Y138935D02*
X10345D01*
X30018Y137842D02*
X36671Y144495D01*
X29079Y137335D02*
X29633D01*
X28943Y133335D02*
X29329D01*
X28904Y138135D02*
X30312D01*
X28709Y132535D02*
X29329D01*
X28398Y131735D02*
X29329D01*
X27503Y130135D02*
X29329D01*
X28000Y130935D02*
X29329D01*
X26120Y128535D02*
X29329D01*
X21464Y126135D02*
X29329D01*
X26888Y129335D02*
X29329D01*
X-280Y121335D02*
X29329D01*
X-281Y122135D02*
X29329D01*
X-287Y124535D02*
X29329D01*
X-289Y125335D02*
X29329D01*
X-283Y122935D02*
X29329D01*
X-285Y123735D02*
X29329D01*
X-307Y133335D02*
X10058D01*
X-305Y132535D02*
X10292D01*
X-309Y134135D02*
X9897D01*
X-304Y131735D02*
X10604D01*
X-316Y137335D02*
X9922D01*
X-315Y136535D02*
X9816D01*
X-311Y134935D02*
X9804D01*
X-313Y135735D02*
X9777D01*
X25137Y127735D02*
X29329D01*
X23796Y126935D02*
X29329D01*
X-294Y127735D02*
X13864D01*
X-291Y126135D02*
X17538D01*
X-292Y126935D02*
X15205D01*
X-300Y130135D02*
X11498D01*
X-302Y130935D02*
X11001D01*
X-296Y128535D02*
X12882D01*
X-298Y129335D02*
X12114D01*
X218737Y113335D02*
X229600D01*
X219174Y112535D02*
X229600D01*
X218074Y114135D02*
X229600D01*
X219579Y110935D02*
X229600D01*
X219446Y111735D02*
X229600D01*
X207013Y114935D02*
X211987D01*
X217013D02*
X229600D01*
X208074Y114135D02*
X210926D01*
X208737Y113335D02*
X210263D01*
X219463Y109335D02*
X229600D01*
X219204Y108535D02*
X229600D01*
X219585Y110135D02*
X229600D01*
X218145Y106935D02*
X229600D01*
X218783Y107735D02*
X229600D01*
X208145Y106935D02*
X210855D01*
X208783Y107735D02*
X210217D01*
X217134Y106135D02*
X229600D01*
X207135D02*
X211865D01*
X198737Y113335D02*
X200263D01*
X209174Y112535D02*
X209826D01*
X199174D02*
X199826D01*
X199412Y108955D02*
X199481Y109258D01*
X197013Y114935D02*
X201987D01*
X198074Y114135D02*
X200926D01*
X188951Y112535D02*
X189826D01*
X189237Y111735D02*
X189554D01*
X209204Y108535D02*
X209796D01*
X200587Y106135D02*
X201866D01*
X200376Y106935D02*
X200855D01*
X199368Y108535D02*
X199796D01*
X188991D02*
X189796D01*
X199822Y107735D02*
X200217D01*
X199622Y107935D02*
X199838Y107719D01*
X200600Y100535D02*
X229600D01*
X200600Y103735D02*
X229600D01*
X230290Y97387D02*
X296410Y31266D01*
X200600Y99735D02*
X229600D01*
X200600Y98935D02*
X229603D01*
X200600Y104535D02*
X229600D01*
X200600Y97335D02*
X230341D01*
X200600Y98135D02*
X229785D01*
X203433Y93335D02*
X234341D01*
X203550Y92535D02*
X235141D01*
X203075Y94135D02*
X233541D01*
X203118Y90935D02*
X236741D01*
X203453Y91735D02*
X235941D01*
X200941Y95735D02*
X231941D01*
X200600Y96535D02*
X231141D01*
X202427Y90135D02*
X237541D01*
X202336Y94935D02*
X232741D01*
X200600Y105335D02*
X229600D01*
Y99050D02*
Y133288D01*
X200600Y96077D02*
Y105880D01*
X194064Y105302D02*
X194354Y105210D01*
X193251Y105520D02*
X194064Y105302D01*
X195400Y95000D02*
Y104734D01*
X194354Y105210D02*
X194917Y104995D01*
X200600Y102135D02*
X229600D01*
X200600Y101335D02*
X229600D01*
X200600Y102935D02*
X229600D01*
X200600Y96077D02*
X201034Y95643D01*
X196161Y93161D02*
X197347Y91976D01*
X173359Y120535D02*
X229600D01*
X172559Y119735D02*
X229600D01*
X186556Y114935D02*
X191987D01*
X187771Y114135D02*
X190926D01*
X187870Y106935D02*
X190855D01*
X170959Y118135D02*
X229600D01*
X170159Y117335D02*
X229600D01*
X171759Y118935D02*
X229600D01*
X168559Y115735D02*
X229600D01*
X169359Y116535D02*
X229600D01*
X158159Y105335D02*
X193940D01*
X157359Y104535D02*
X195400D01*
X186742Y106135D02*
X191866D01*
X155759Y102935D02*
X195400D01*
X156559Y103735D02*
X195400D01*
X154159Y101335D02*
X195400D01*
X154959Y102135D02*
X195400D01*
X152559Y99735D02*
X195400D01*
X153359Y100535D02*
X195400D01*
X188487Y113335D02*
X190263D01*
X167759Y114935D02*
X182443D01*
X166959Y114135D02*
X181229D01*
X166159Y113335D02*
X180513D01*
X165359Y112535D02*
X180050D01*
X164559Y111735D02*
X179763D01*
X163759Y110935D02*
X179622D01*
X162959Y110135D02*
X179615D01*
X188550Y107735D02*
X190217D01*
X162159Y109335D02*
X179740D01*
X160559Y107735D02*
X180450D01*
X161359Y108535D02*
X180009D01*
X158959Y106135D02*
X182257D01*
X159759Y106935D02*
X181130D01*
X150959Y98135D02*
X195400D01*
X150159Y97335D02*
X195400D01*
X151759Y98935D02*
X195400D01*
X148559Y95735D02*
X195400D01*
X149359Y96535D02*
X195400D01*
X146959Y94135D02*
X195548D01*
X146159Y93335D02*
X196003D01*
X147759Y94935D02*
X195401D01*
X133471Y91735D02*
X197533D01*
X145180Y92535D02*
X196788D01*
X134712Y89335D02*
X238341D01*
X134789Y88535D02*
X239141D01*
X134489Y90135D02*
X198574D01*
X134521Y86935D02*
X240741D01*
X134727Y87735D02*
X239941D01*
X134148Y86135D02*
X241541D01*
X134096Y90935D02*
X197882D01*
X132582Y84535D02*
X243141D01*
X133554Y85335D02*
X242341D01*
X145808Y92985D02*
X185004Y132181D01*
X132815Y92295D02*
X144145D01*
X68169D02*
X121652D01*
X68826Y91735D02*
X120996D01*
X69450Y90935D02*
X120372D01*
X69875Y86935D02*
X119947D01*
X69502Y86135D02*
X120320D01*
X69843Y90135D02*
X119978D01*
X67936Y84535D02*
X121885D01*
X68908Y85335D02*
X120914D01*
X134620Y79735D02*
X247941D01*
X134768Y78935D02*
X248741D01*
X134317Y80535D02*
X247141D01*
X134643Y77335D02*
X250341D01*
X134776Y78135D02*
X249541D01*
X133029Y82135D02*
X245541D01*
X133819Y81335D02*
X246341D01*
X131510Y82935D02*
X244741D01*
X133884Y75735D02*
X251941D01*
X133921Y48535D02*
X279141D01*
X134358Y76535D02*
X251141D01*
X134772Y46935D02*
X280741D01*
X134443Y47735D02*
X279941D01*
X131765Y74135D02*
X253541D01*
X133135Y74935D02*
X252741D01*
X133107Y49335D02*
X278341D01*
X131563Y50135D02*
X277541D01*
X124328Y83842D02*
X130139D01*
X124328Y83142D02*
X130140D01*
X68383Y82135D02*
X121439D01*
X69173Y81335D02*
X120649D01*
X69670Y80535D02*
X120151D01*
X69974Y79735D02*
X119848D01*
X124328Y73842D02*
X130140D01*
X69712Y76535D02*
X120110D01*
X124328Y50349D02*
X130140D01*
X69710Y47735D02*
X120025D01*
X68489Y74935D02*
X121333D01*
X69238Y75735D02*
X120584D01*
X68374Y49335D02*
X121361D01*
X69188Y48535D02*
X120547D01*
X134987Y45335D02*
X282341D01*
X134893Y44535D02*
X283141D01*
X134948Y46135D02*
X281541D01*
X134257Y42935D02*
X284741D01*
X134658Y43735D02*
X283941D01*
X132627Y41335D02*
X286341D01*
X132502Y39735D02*
X287941D01*
X133634Y42135D02*
X285541D01*
X134211Y38135D02*
X289541D01*
X133563Y38935D02*
X288741D01*
X134878Y36535D02*
X291141D01*
X134984Y35735D02*
X291941D01*
X134629Y37335D02*
X290341D01*
X134794Y34135D02*
X293541D01*
X134957Y34935D02*
X292741D01*
X133978Y32535D02*
X295141D01*
X134480Y33335D02*
X294341D01*
X131779Y30935D02*
X296503D01*
X133197Y31735D02*
X295941D01*
X124328Y40649D02*
X130140D01*
X68899Y42135D02*
X120834D01*
X69522Y42935D02*
X120211D01*
X67891Y41335D02*
X121841D01*
X124328Y40350D02*
X130140D01*
X69565Y38135D02*
X120257D01*
X69834Y33335D02*
X119988D01*
X124328Y30650D02*
X130140D01*
X67857Y39735D02*
X121966D01*
X68917Y38935D02*
X120905D01*
X68551Y31735D02*
X121271D01*
X69332Y32535D02*
X120490D01*
X26413Y58935D02*
X268741D01*
X26481Y58135D02*
X269541D01*
X26191Y59735D02*
X267941D01*
X26168Y56535D02*
X271141D01*
X26402Y57335D02*
X270341D01*
X23986Y62135D02*
X265541D01*
X25135Y61335D02*
X266341D01*
X-145Y62935D02*
X264741D01*
X25750Y55735D02*
X271941D01*
X25789Y60535D02*
X267141D01*
X23856Y54135D02*
X273541D01*
X-93Y40535D02*
X287141D01*
X25071Y54935D02*
X272741D01*
X45654Y29335D02*
X297351D01*
X44212Y30135D02*
X296772D01*
X-121Y52535D02*
X275141D01*
X-123Y53335D02*
X274341D01*
X-117Y50935D02*
X276741D01*
X-119Y51735D02*
X275941D01*
X66864Y82935D02*
X122958D01*
X25025Y70935D02*
X256741D01*
X67119Y74135D02*
X122703D01*
X25348Y69335D02*
X258341D01*
X25257Y70135D02*
X257541D01*
X23016Y73335D02*
X254341D01*
X24505Y83735D02*
X243941D01*
X24628Y71735D02*
X255941D01*
X24011Y72535D02*
X255141D01*
X25127Y67735D02*
X259941D01*
X24795Y66935D02*
X260741D01*
X25306Y68535D02*
X259141D01*
X66832Y50135D02*
X122905D01*
X67133Y30935D02*
X122689D01*
X23445Y65335D02*
X262341D01*
X24268Y66135D02*
X261541D01*
X-147Y63735D02*
X263941D01*
X21866Y64535D02*
X263141D01*
X47599Y27735D02*
X346129D01*
X48309Y26935D02*
X345414D01*
X48346Y12535D02*
X345333D01*
X46789Y10935D02*
X346879D01*
X47643Y11735D02*
X346031D01*
X44308Y9335D02*
X349334D01*
X42043Y8535D02*
X351544D01*
X45722Y10135D02*
X347937D01*
X-16Y6935D02*
X394000D01*
X-18Y7735D02*
X394000D01*
X-5Y2135D02*
X394000D01*
X-3Y1335D02*
X394000D01*
X-7Y2935D02*
X394000D01*
X500Y500D02*
X394000D01*
X-1Y535D02*
X394000D01*
X-12Y5335D02*
X394000D01*
X-14Y6135D02*
X394000D01*
X-9Y3735D02*
X394000D01*
X-10Y4535D02*
X394000D01*
X50136Y23735D02*
X343576D01*
X50402Y22935D02*
X343307D01*
X50604Y22135D02*
X343103D01*
X50748Y21335D02*
X342957D01*
X50833Y20535D02*
X342870D01*
X48900Y26135D02*
X344819D01*
X46735Y28535D02*
X298783D01*
X49393Y25335D02*
X344323D01*
X49802Y24535D02*
X343912D01*
X50836Y18935D02*
X342863D01*
X50754Y18135D02*
X342943D01*
X50863Y19735D02*
X342838D01*
X50415Y16535D02*
X343278D01*
X50614Y17335D02*
X343081D01*
X49823Y14935D02*
X343866D01*
X50152Y15735D02*
X343538D01*
X48931Y13335D02*
X344752D01*
X49419Y14135D02*
X344267D01*
X74933Y119256D02*
X75286Y119610D01*
X66850Y119735D02*
X70487D01*
X74560Y118950D02*
X74803Y119176D01*
X68050Y118950D02*
X74560D01*
X66850Y120535D02*
X69465D01*
X66850Y118935D02*
X68050D01*
X66850Y118135D02*
X68050D01*
X66850Y116535D02*
X68050D01*
X66850Y117335D02*
X68050D01*
X66850Y111735D02*
X68050D01*
X67174Y110935D02*
X68050D01*
X66850Y112535D02*
X68050D01*
Y110059D02*
X68759Y109350D01*
X66850Y111259D02*
X68050Y110059D01*
X66850Y114935D02*
X68050D01*
X66850Y115735D02*
X68050D01*
X66850Y113335D02*
X68050D01*
X66850Y114135D02*
X68050D01*
X47070D02*
X48185D01*
X68050Y110059D02*
Y118950D01*
X66850Y111259D02*
Y135000D01*
X45526Y112535D02*
X49874D01*
X43671Y111735D02*
X55203D01*
X46457Y113335D02*
X48840D01*
X39624Y110199D02*
Y112437D01*
X41288Y108535D02*
X55203D01*
X42088Y107735D02*
X55203D01*
X40488Y109335D02*
X55203D01*
X43688Y106135D02*
X55203D01*
X42888Y106935D02*
X55203D01*
X39624Y110935D02*
X55203D01*
X39624Y111735D02*
X41329D01*
X39688Y110135D02*
X55203D01*
X25832Y106135D02*
X29329D01*
X55893Y103484D02*
X57472Y101906D01*
X46888Y102935D02*
X56442D01*
X47688Y102135D02*
X57242D01*
X46088Y103735D02*
X55675D01*
X47918Y101906D02*
X57472D01*
X39855Y92295D02*
X57007D01*
X70066Y89335D02*
X119755D01*
X70143Y88535D02*
X119678D01*
X70082Y87735D02*
X119740D01*
X25229Y91735D02*
X56350D01*
X59683Y83842D02*
X65494D01*
X55203Y105148D02*
Y112570D01*
X45288Y104535D02*
X55285D01*
X44488Y105335D02*
X55203D01*
X39624Y110199D02*
X47918Y101906D01*
X29329Y102822D02*
Y136179D01*
X26425Y104535D02*
X29329D01*
X26217Y105335D02*
X29329D01*
X26388Y102935D02*
X29329D01*
X26480Y103735D02*
X29329D01*
X30018Y101158D02*
X38192Y92985D01*
X25703Y101335D02*
X29858D01*
X26140Y102135D02*
X29431D01*
X25342Y92535D02*
X38820D01*
X25322Y93335D02*
X37841D01*
X-265Y114935D02*
X29329D01*
X-263Y114135D02*
X29329D01*
X-267Y115735D02*
X29329D01*
X-259Y112535D02*
X29329D01*
X-261Y113335D02*
X29329D01*
X-276Y119735D02*
X29329D01*
X-274Y118935D02*
X29329D01*
X-278Y120535D02*
X29329D01*
X-268Y116535D02*
X29329D01*
X-272Y118135D02*
X29329D01*
X24123Y107735D02*
X29329D01*
X25205Y106935D02*
X29329D01*
X-250Y108535D02*
X29329D01*
X23690Y99735D02*
X31441D01*
X24995Y100535D02*
X30641D01*
X-256Y110935D02*
X29329D01*
X-257Y111735D02*
X29329D01*
X-252Y109335D02*
X29329D01*
X-254Y110135D02*
X29329D01*
X18925Y108240D02*
X22075D01*
X-243Y105335D02*
X14783D01*
X-241Y104535D02*
X14575D01*
X-270Y117335D02*
X29329D01*
X-248Y107735D02*
X16877D01*
X-246Y106935D02*
X15795D01*
X-245Y106135D02*
X15168D01*
X-232Y100535D02*
X16005D01*
X-230Y99735D02*
X17310D01*
X-237Y102935D02*
X14612D01*
X-239Y103735D02*
X14520D01*
X-234Y101335D02*
X15297D01*
X-235Y102135D02*
X14860D01*
X24369Y95735D02*
X35441D01*
X24860Y94935D02*
X36241D01*
X23607Y96535D02*
X34641D01*
X24973Y90935D02*
X55726D01*
X25166Y94135D02*
X37041D01*
X-228Y98935D02*
X32241D01*
X-226Y98135D02*
X33041D01*
X22247Y97335D02*
X33841D01*
X24545Y90135D02*
X55333D01*
X23883Y89335D02*
X55110D01*
X22790Y88535D02*
X55033D01*
X23820Y84535D02*
X57240D01*
X22674Y85335D02*
X56268D01*
X-200Y86935D02*
X55301D01*
X-202Y87735D02*
X55094D01*
X-198Y86135D02*
X55674D01*
X18925Y99429D02*
X22075D01*
X-219Y94935D02*
X16140D01*
X-217Y94135D02*
X15834D01*
X-215Y93335D02*
X15678D01*
X-224Y97335D02*
X18753D01*
X-222Y96535D02*
X17393D01*
X-221Y95735D02*
X16631D01*
X-500Y217000D02*
X0Y0D01*
X-204Y88535D02*
X18211D01*
X-197Y85335D02*
X18326D01*
X-206Y89335D02*
X17117D01*
X-195Y84535D02*
X17180D01*
X-193Y83735D02*
X16495D01*
X-211Y91735D02*
X15771D01*
X-213Y92535D02*
X15658D01*
X-208Y90135D02*
X16455D01*
X-209Y90935D02*
X16027D01*
X70122Y78935D02*
X119700D01*
X70130Y78135D02*
X119692D01*
X59683Y83142D02*
X65494D01*
X69997Y77335D02*
X119825D01*
X70038Y46935D02*
X119696D01*
X70214Y46135D02*
X119520D01*
X70159Y44535D02*
X119575D01*
X70253Y45335D02*
X119481D01*
X59683Y73842D02*
X65494D01*
X59595Y50350D02*
X65405D01*
X69923Y43735D02*
X119810D01*
X24947Y82935D02*
X58312D01*
X25215Y82135D02*
X56793D01*
X25338Y81335D02*
X56003D01*
X25328Y80535D02*
X55506D01*
X25182Y79735D02*
X55202D01*
X24889Y78935D02*
X55054D01*
X23677Y77335D02*
X55179D01*
X24414Y78135D02*
X55046D01*
X22395Y76535D02*
X55464D01*
X18925Y62571D02*
X22075D01*
X18925Y53759D02*
X22075D01*
X69983Y37335D02*
X119839D01*
X70232Y36535D02*
X119590D01*
X70338Y35735D02*
X119484D01*
X59595Y40650D02*
X65405D01*
X59683Y40350D02*
X65494D01*
X70310Y34935D02*
X119511D01*
X70148Y34135D02*
X119674D01*
X41846Y30935D02*
X58043D01*
X59683Y30650D02*
X65494D01*
X-34Y14935D02*
X28918D01*
X-33Y14135D02*
X29322D01*
X-40Y17335D02*
X28126D01*
X-42Y18135D02*
X27986D01*
X-36Y15735D02*
X28588D01*
X-38Y16535D02*
X28326D01*
X-21Y9335D02*
X34432D01*
X-23Y10135D02*
X33018D01*
X-20Y8535D02*
X36698D01*
X0Y0D02*
X500Y500D01*
X-29Y12535D02*
X30395D01*
X-31Y13335D02*
X29809D01*
X-25Y10935D02*
X31952D01*
X-27Y11735D02*
X31097D01*
X-173Y74935D02*
X56687D01*
X-171Y74135D02*
X58057D01*
X-175Y75735D02*
X55938D01*
X-169Y73335D02*
X17984D01*
X-167Y72535D02*
X16989D01*
X-182Y78935D02*
X16111D01*
X-180Y78135D02*
X16586D01*
X-191Y82935D02*
X16053D01*
X-176Y76535D02*
X18605D01*
X-178Y77335D02*
X17323D01*
X-149Y64535D02*
X19134D01*
X-125Y54135D02*
X17144D01*
X-143Y62135D02*
X17015D01*
X-115Y50135D02*
X58168D01*
X-114Y49335D02*
X56626D01*
X-165Y71735D02*
X16372D01*
X-154Y66935D02*
X16205D01*
X-151Y65335D02*
X17555D01*
X-152Y66135D02*
X16732D01*
X-163Y70935D02*
X15975D01*
X-162Y70135D02*
X15743D01*
X-160Y69335D02*
X15652D01*
X-156Y67735D02*
X15873D01*
X-158Y68535D02*
X15694D01*
X-189Y82135D02*
X15785D01*
X-187Y81335D02*
X15662D01*
X-184Y79735D02*
X15818D01*
X-186Y80535D02*
X15672D01*
X-132Y57335D02*
X14598D01*
X-130Y56535D02*
X14832D01*
X-134Y58135D02*
X14519D01*
X-127Y54935D02*
X15929D01*
X-128Y55735D02*
X15250D01*
X-141Y61335D02*
X15865D01*
X-140Y60535D02*
X15211D01*
X-138Y59735D02*
X14808D01*
X-136Y58935D02*
X14587D01*
X-97Y42135D02*
X56101D01*
X-95Y41335D02*
X57109D01*
X-99Y42935D02*
X55478D01*
X-92Y39735D02*
X57319D01*
X-90Y38935D02*
X56259D01*
X-112Y48535D02*
X55812D01*
X-110Y47735D02*
X55290D01*
X-108Y46935D02*
X54962D01*
X-101Y43735D02*
X55077D01*
X-103Y44535D02*
X54841D01*
X-79Y34135D02*
X55028D01*
X-77Y33335D02*
X55342D01*
X-81Y34935D02*
X54865D01*
X-73Y31735D02*
X56625D01*
X-75Y32535D02*
X55844D01*
X-88Y38135D02*
X55611D01*
X-86Y37335D02*
X55193D01*
X-84Y36535D02*
X54944D01*
X-82Y35735D02*
X54838D01*
X-68Y29335D02*
X33087D01*
X-66Y28535D02*
X32005D01*
X-64Y27735D02*
X31141D01*
X-62Y26935D02*
X30431D01*
X-60Y26135D02*
X29840D01*
X-106Y46135D02*
X54786D01*
X-105Y45335D02*
X54747D01*
X-71Y30935D02*
X36894D01*
X-69Y30135D02*
X34528D01*
X-51Y22135D02*
X28136D01*
X-49Y21335D02*
X27993D01*
X-47Y20535D02*
X27907D01*
X-44Y18935D02*
X27904D01*
X-46Y19735D02*
X27878D01*
X-58Y25335D02*
X29347D01*
X-56Y24535D02*
X28938D01*
X-55Y23735D02*
X28605D01*
X-53Y22935D02*
X28339D01*
D34*
X354331Y196850D02*
Y207693D01*
X362205Y196850D02*
X364386D01*
X354331Y204724D02*
Y206906D01*
Y196850D02*
X365173D01*
X354331Y186008D02*
Y196850D01*
Y186795D02*
Y188976D01*
X344276Y196850D02*
X346457D01*
X343488D02*
X354331D01*
X377500Y139500D02*
X381600D01*
X373400D02*
X377500D01*
Y143600D01*
Y135400D02*
Y139500D01*
X317000Y137500D02*
Y141600D01*
X312900Y137500D02*
X317000D01*
X321100D01*
X317000Y133400D02*
Y137500D01*
X362205Y19685D02*
X364386D01*
X354331D02*
Y30527D01*
Y27559D02*
Y29740D01*
Y19685D02*
X365173D01*
X354331Y9630D02*
Y11811D01*
Y8843D02*
Y19685D01*
X343488D02*
X354331D01*
X344276D02*
X346457D01*
X322000Y111000D02*
Y115100D01*
Y111000D02*
X326100D01*
X317900D02*
X322000D01*
Y106900D02*
Y111000D01*
X147000Y197500D02*
X151100D01*
X142900D02*
X147000D01*
Y193400D02*
Y197500D01*
X137000D02*
X141100D01*
X132900D02*
X137000D01*
Y193400D02*
Y197500D01*
X39370Y196878D02*
Y207721D01*
Y196878D02*
X50213D01*
X39370Y204752D02*
Y206933D01*
X47244Y196878D02*
X49425D01*
X28528D02*
X39370D01*
Y186823D02*
Y189004D01*
X29315Y196878D02*
X31496D01*
X39370Y186036D02*
Y196878D01*
X19501Y155344D02*
X28375D01*
X19501D02*
Y164218D01*
Y146470D02*
Y155344D01*
X10627D02*
X19501D01*
X73000Y134000D02*
Y138100D01*
Y134000D02*
X77100D01*
X68900D02*
X73000D01*
Y129900D02*
Y134000D01*
X184500Y110490D02*
Y114738D01*
Y106242D02*
Y110490D01*
X180252D02*
X184500D01*
X188748D01*
X120328Y88492D02*
X127234D01*
X134139D01*
X127234Y84492D02*
Y88492D01*
X127234Y78492D02*
Y82492D01*
Y78492D02*
X134140D01*
X120328D02*
X127234D01*
Y74492D02*
Y78492D01*
X52510Y112467D02*
Y117010D01*
X62588Y88492D02*
X69494D01*
X55682D02*
X62588D01*
Y84492D02*
Y88492D01*
X20500Y103835D02*
Y107590D01*
X15169Y103835D02*
X20500D01*
X25831D01*
X20500Y100079D02*
Y103835D01*
X62588Y78492D02*
Y82492D01*
Y78492D02*
X69494D01*
X55682D02*
X62588D01*
Y74492D02*
Y78492D01*
X20500Y58165D02*
X25831D01*
X20500D02*
Y61921D01*
Y54409D02*
Y58165D01*
X15169D02*
X20500D01*
X47244Y19713D02*
X49425D01*
X39370D02*
X50213D01*
X39370Y27587D02*
Y29768D01*
X28528Y19713D02*
X39370D01*
Y30555D01*
X29315Y19713D02*
X31496D01*
X39370Y8870D02*
Y19713D01*
Y9658D02*
Y11839D01*
D36*
X76500Y183500D02*
X79757Y180243D01*
X139743D02*
X157000Y197500D01*
X79757Y180243D02*
X139743D01*
X241850Y94907D02*
Y165150D01*
X241500Y165500D02*
X241850Y165150D01*
X198000Y95000D02*
X200500Y92500D01*
X194500Y109380D02*
Y110500D01*
Y109380D02*
X198000Y105880D01*
Y95000D02*
Y105880D01*
X88193Y185193D02*
X92972D01*
X218000Y206500D02*
X227000Y197500D01*
X92972Y185193D02*
X114279Y206500D01*
X218000D01*
X241850Y94907D02*
X305379Y31378D01*
D37*
X338000Y97000D02*
X338500D01*
X337500D02*
X338000D01*
X320000Y79500D02*
X337500Y97000D01*
D38*
X42500Y147000D02*
D03*
X52500D02*
D03*
X42500Y137000D02*
D03*
X52500D02*
D03*
X42500Y127000D02*
D03*
X52500D02*
D03*
X42500Y117000D02*
D03*
X52510Y117010D02*
D03*
D39*
X137000Y197500D02*
D03*
X147000D02*
D03*
X157000D02*
D03*
X167000D02*
D03*
X177000D02*
D03*
X187000D02*
D03*
X197000D02*
D03*
X207000D02*
D03*
X217000D02*
D03*
X227000D02*
D03*
X237000D02*
D03*
X247000D02*
D03*
X257000D02*
D03*
X267000D02*
D03*
X277000D02*
D03*
X287000D02*
D03*
X297000D02*
D03*
X307000D02*
D03*
X317000D02*
D03*
X327000D02*
D03*
X327000Y137500D02*
D03*
X317000D02*
D03*
X307000D02*
D03*
X297000D02*
D03*
X287000D02*
D03*
X277000D02*
D03*
X267000D02*
D03*
X257000D02*
D03*
X247000D02*
D03*
X237000D02*
D03*
X227000D02*
D03*
X217000D02*
D03*
X207000D02*
D03*
X197000D02*
D03*
X187000D02*
D03*
X177000D02*
D03*
X167000D02*
D03*
X157000D02*
D03*
X147000D02*
D03*
X137000Y137500D02*
D03*
X262000Y111000D02*
D03*
X272000D02*
D03*
X282000D02*
D03*
X292000D02*
D03*
X302000D02*
D03*
X312000D02*
D03*
X322000D02*
D03*
X73000Y164000D02*
D03*
Y154000D02*
D03*
Y144000D02*
D03*
Y134000D02*
D03*
Y124000D02*
D03*
X377500Y139500D02*
D03*
Y149500D02*
D03*
Y159500D02*
D03*
D40*
X20500Y69189D02*
D03*
Y81000D02*
D03*
Y92811D02*
D03*
D41*
Y103835D02*
D03*
Y58165D02*
D03*
D42*
X332000Y111000D02*
D03*
D43*
X73000Y114000D02*
D03*
X377500Y129500D02*
D03*
D44*
X214500Y110500D02*
D03*
X204500D02*
D03*
X194500D02*
D03*
X184500Y110490D02*
D03*
D45*
X127234Y45499D02*
D03*
Y78492D02*
D03*
X62500Y45500D02*
D03*
X62588Y78492D02*
D03*
X127234Y35500D02*
D03*
X127234Y88492D02*
D03*
X62588Y35500D02*
D03*
Y88492D02*
D03*
D46*
X356000Y87217D02*
D03*
Y69500D02*
D03*
D47*
X19501Y135659D02*
D03*
Y155344D02*
D03*
D48*
X39370Y19713D02*
D03*
X354331Y19685D02*
D03*
Y196850D02*
D03*
X39370Y196878D02*
D03*
D49*
Y27587D02*
D03*
X33819Y25264D02*
D03*
X31496Y19713D02*
D03*
X33819Y14162D02*
D03*
X39370Y11839D02*
D03*
X44921Y14162D02*
D03*
X47244Y19713D02*
D03*
X44921Y25264D02*
D03*
X354331Y27559D02*
D03*
X348780Y25236D02*
D03*
X346457Y19685D02*
D03*
X348780Y14134D02*
D03*
X354331Y11811D02*
D03*
X359882Y14134D02*
D03*
X362205Y19685D02*
D03*
X359882Y25236D02*
D03*
X354331Y204724D02*
D03*
X348780Y202401D02*
D03*
X346457Y196850D02*
D03*
X348780Y191299D02*
D03*
X354331Y188976D02*
D03*
X359882Y191299D02*
D03*
X362205Y196850D02*
D03*
X359882Y202401D02*
D03*
X39370Y204752D02*
D03*
X33819Y202429D02*
D03*
X31496Y196878D02*
D03*
X33819Y191327D02*
D03*
X39370Y189004D02*
D03*
X44921Y191327D02*
D03*
X47244Y196878D02*
D03*
X44921Y202429D02*
D03*
D50*
X187172Y181410D02*
D03*
X228500Y167000D02*
D03*
X226500Y181500D02*
D03*
X351866Y111866D02*
D03*
X378000Y63000D02*
D03*
X363000D02*
D03*
X378000Y112000D02*
D03*
X363000D02*
D03*
X241500Y165500D02*
D03*
X200500Y92500D02*
D03*
X252000Y149500D02*
D03*
X88193Y185193D02*
D03*
X323000Y31000D02*
D03*
X76500Y183500D02*
D03*
X82500Y184500D02*
D03*
X94000Y209500D02*
D03*
X70500Y185000D02*
D03*
X64500D02*
D03*
X329000Y31500D02*
D03*
X311205Y31262D02*
D03*
X305379Y31378D02*
D03*
X299500Y31500D02*
D03*
D51*
X338000Y97000D02*
D03*
X320000Y79500D02*
D03*
M02*
